<?xml version="1.0" encoding="utf-8"?>
<!-- Generator: Adobe Illustrator 27.5.0, SVG Export Plug-In . SVG Version: 6.00 Build 0)  -->
<svg version="1.1" xmlns="http://www.w3.org/2000/svg" xmlns:xlink="http://www.w3.org/1999/xlink" x="0px" y="0px"
	 viewBox="0 0 500 500" style="enable-background:new 0 0 500 500;" xml:space="preserve">
<g id="BACKGROUND">
</g>
<g id="OBJECTS">
	<path style="fill:#FFC800;" d="M268.343,38.369c-99.448,0-180.066,80.618-180.066,180.066c0,39.803,12.924,76.582,34.792,106.391
		c-14.675,27.935-39.449,45.6-39.449,45.6c34.756,0.808,58.35-3.436,74.379-9.697c30.481,23.671,68.764,37.772,110.344,37.772
		c99.448,0,180.066-80.618,180.066-180.066C448.41,118.987,367.791,38.369,268.343,38.369z"/>
	<path style="fill:#F74A98;" d="M93.348,38.56c37.814,0,68.468,30.654,68.468,68.468c0,15.135-4.914,29.119-13.229,40.454
		c5.58,10.622,15,17.339,15,17.339c-13.215,0.307-22.187-1.306-28.282-3.687c-11.59,9.001-26.146,14.362-41.957,14.362
		c-37.814,0-68.468-30.654-68.468-68.468C24.88,69.214,55.534,38.56,93.348,38.56z"/>
	<g>
		<path style="fill:#006B63;" d="M371.682,435.756H163.145V333.822c0-41.311,33.489-74.801,74.801-74.801h58.936
			c41.311,0,74.801,33.489,74.801,74.801V435.756z"/>
		<polygon style="opacity:0.1;" points="270.391,285.411 307.814,256.45 301.849,306.607 		"/>
		<path style="opacity:0.1;" d="M220.543,261.477l5.367,45.129l31.458-21.196l-32.252-24.959
			C223.576,260.751,222.049,261.087,220.543,261.477z"/>
		<polygon style="fill:#006B63;" points="301.942,280.739 231.971,280.739 223.022,248.018 310.891,248.018 		"/>
		<polygon style="fill:#FFC98D;" points="278.528,280.739 256.298,280.739 239.135,213.764 295.692,213.764 		"/>
		<path style="opacity:0.1;" d="M249.768,255.256c6.103,1.73,12.536,2.675,19.194,2.675c5.464,0,10.774-0.644,15.879-1.824
			l10.851-42.344h-56.557L249.768,255.256z"/>
		
			<ellipse transform="matrix(0.1767 -0.9843 0.9843 0.1767 118.3138 462.9639)" style="fill:#FFC98D;" cx="335.897" cy="160.759" rx="11.912" ry="11.912"/>
		
			<ellipse transform="matrix(0.6061 -0.7954 0.7954 0.6061 -47.4856 225.6266)" style="fill:#FFC98D;" cx="204.07" cy="160.759" rx="11.912" ry="11.912"/>
		<path style="opacity:0.1;" d="M195.751,160.759c0-5.966,4.392-10.894,10.116-11.762c-0.587-0.089-1.184-0.15-1.796-0.15
			c-6.579,0-11.912,5.333-11.912,11.912c0,6.579,5.333,11.912,11.912,11.912c0.612,0,1.209-0.061,1.796-0.15
			C200.142,171.653,195.751,166.726,195.751,160.759z"/>
		
			<ellipse transform="matrix(0.4632 -0.8863 0.8863 0.4632 37.8372 383.9867)" style="opacity:0.3;fill:#FFFFFF;" cx="335.897" cy="160.759" rx="11.912" ry="11.912"/>
		<path style="opacity:0.36;fill:#FFFFFF;" d="M344.216,160.759c0-5.966-4.392-10.894-10.116-11.762
			c0.588-0.089,1.184-0.15,1.797-0.15c6.579,0,11.912,5.333,11.912,11.912c0,6.579-5.333,11.912-11.912,11.912
			c-0.612,0-1.209-0.061-1.797-0.15C339.825,171.653,344.216,166.726,344.216,160.759z"/>
		<circle style="fill:#FFC98D;" cx="268.962" cy="177.741" r="70.277"/>
		<path style="opacity:0.1;" d="M277.974,240.036c-38.813,0-70.277-31.464-70.277-70.277c0-18.809,7.404-35.878,19.437-48.491
			c-17.26,12.805-28.45,33.33-28.45,56.473c0,38.813,31.464,70.277,70.277,70.277c20.004,0,38.041-8.372,50.84-21.786
			C308.114,234.903,293.645,240.036,277.974,240.036z"/>
		<path style="fill:none;stroke:#603813;stroke-width:2;stroke-linecap:round;stroke-miterlimit:10;" d="M233.242,169.759
			c0-3.242,2.628-5.871,5.871-5.871c3.243,0,5.871,2.628,5.871,5.871"/>
		<path style="opacity:0.1;" d="M275.073,218.435c0,3.242-2.628,5.871-5.871,5.871c-3.243,0-5.871-2.628-5.871-5.871"/>
		<path style="fill:none;stroke:#603813;stroke-width:2;stroke-linecap:round;stroke-miterlimit:10;" d="M293.184,169.759
			c0-3.242,2.628-5.871,5.871-5.871c3.242,0,5.871,2.628,5.871,5.871"/>
		<path style="fill:#754C24;" d="M281.826,150.185c1.608-4.499,14.344-3.703,21.228-2.403c4.762,0.899,12.023,2.27,13.218,6.809
			c0.48,1.824,0.065,4.484-1.602,5.607c-3.367,2.27-7.667-4.545-16.422-4.806c-6.538-0.196-9.527,3.443-13.218,1.202
			C282.85,155.269,281.076,152.286,281.826,150.185z"/>
		<path style="fill:#754C24;" d="M254.891,150.185c-1.608-4.499-14.344-3.703-21.228-2.403c-4.762,0.899-12.024,2.27-13.218,6.809
			c-0.48,1.824-0.065,4.484,1.602,5.607c3.367,2.27,7.667-4.545,16.422-4.806c6.538-0.196,9.527,3.443,13.218,1.202
			C253.868,155.269,255.642,152.286,254.891,150.185z"/>
		<path style="opacity:0.1;" d="M300.258,153.389c-6.538-0.195-9.527,3.443-13.218,1.202c-2.181-1.325-3.955-4.307-3.204-6.408
			c0.003-0.009,0.011-0.017,0.014-0.026c-1,0.506-1.717,1.17-2.024,2.028c-0.751,2.101,1.023,5.084,3.204,6.409
			c3.691,2.242,6.679-1.397,13.218-1.202c8.755,0.262,13.055,7.076,16.422,4.806c0.589-0.397,1.014-0.991,1.307-1.668
			C312.705,159.56,308.417,153.633,300.258,153.389z"/>
		<path style="opacity:0.1;" d="M253.697,154.591c-3.691,2.242-6.679-1.397-13.218-1.202c-8.755,0.262-13.055,7.076-16.422,4.806
			c-1.667-1.123-2.082-3.783-1.602-5.607c0.134-0.511,0.355-0.976,0.631-1.41c-1.299,0.882-2.267,1.992-2.641,3.413
			c-0.48,1.824-0.065,4.484,1.602,5.607c3.367,2.269,7.667-4.545,16.422-4.806c6.538-0.196,9.527,3.443,13.218,1.202
			c0.853-0.518,1.637-1.294,2.239-2.167C253.849,154.479,253.775,154.543,253.697,154.591z"/>
		<path style="fill:#E35B61;" d="M232.004,177.741c0,1.581-2.01,2.863-4.491,2.863c-2.48,0-4.491-1.282-4.491-2.863
			c0-1.581,2.011-2.863,4.491-2.863C229.993,174.877,232.004,176.159,232.004,177.741z"/>
		<g>
			
				<ellipse transform="matrix(0.1951 -0.9808 0.9808 0.1951 35.5826 412.6444)" style="fill:#FFC98D;" cx="269.202" cy="184.643" rx="11.058" ry="11.058"/>
			<path style="opacity:0.3;fill:#FFFFFF;" d="M276.065,181.192c0,1.947-1.578,3.525-3.525,3.525c-1.947,0-3.525-1.578-3.525-3.525
				s1.578-3.525,3.525-3.525C274.486,177.667,276.065,179.245,276.065,181.192z"/>
			<path style="opacity:0.15;" d="M272.337,192.566c-6.107,0-11.058-4.951-11.058-11.058c0-2.252,0.677-4.343,1.832-6.09
				c-2.992,1.979-4.968,5.37-4.968,9.226c0,6.107,4.951,11.058,11.058,11.058c3.856,0,7.247-1.976,9.226-4.968
				C276.681,191.889,274.589,192.566,272.337,192.566z"/>
		</g>
		<path style="fill:#E35B61;" d="M315.382,177.741c0,1.581-2.01,2.863-4.491,2.863c-2.48,0-4.491-1.282-4.491-2.863
			c0-1.581,2.011-2.863,4.491-2.863C313.371,174.877,315.382,176.159,315.382,177.741z"/>
		<path style="fill:none;stroke:#603813;stroke-width:2;stroke-linecap:round;stroke-miterlimit:10;" d="M227.513,196.261
			c0,0,37.556,31.405,83.891,0"/>
		<path style="fill:#754C24;" d="M198.84,182.195c0.048,0.76,0.101,1.519,0.173,2.272c0.04,0.42,0.089,0.837,0.136,1.254
			c0.078,0.69,0.164,1.378,0.262,2.062c0.061,0.43,0.126,0.859,0.196,1.286c0.11,0.678,0.232,1.352,0.361,2.023
			c0.079,0.41,0.155,0.82,0.241,1.228c0.152,0.72,0.321,1.434,0.495,2.146c0.084,0.345,0.16,0.693,0.25,1.036
			c0.269,1.032,0.558,2.056,0.872,3.07c0.071,0.228,0.152,0.451,0.225,0.677c0.254,0.791,0.516,1.578,0.797,2.357
			c0.148,0.411,0.309,0.815,0.465,1.222c0.223,0.584,0.449,1.166,0.687,1.743c0.185,0.448,0.379,0.891,0.573,1.334
			c0.23,0.525,0.466,1.048,0.708,1.566c0.214,0.457,0.431,0.913,0.654,1.364c0.243,0.492,0.496,0.979,0.75,1.465
			c0.239,0.456,0.476,0.912,0.724,1.362c0.26,0.471,0.533,0.933,0.803,1.397c0.263,0.452,0.52,0.907,0.793,1.352
			c0.227,0.371,0.469,0.731,0.703,1.097c0.628,0.982,1.277,1.947,1.951,2.894c0.23,0.324,0.455,0.652,0.691,0.972
			c0.376,0.511,0.766,1.01,1.156,1.51c0.241,0.309,0.48,0.619,0.726,0.923c0.409,0.507,0.827,1.006,1.249,1.501
			c0.235,0.276,0.472,0.549,0.712,0.821c0.449,0.51,0.903,1.015,1.367,1.512c0.207,0.223,0.419,0.441,0.63,0.661
			c0.509,0.532,1.021,1.062,1.547,1.578l0.001,0c0.096,0.095,0.196,0.185,0.293,0.279c2.609,2.531,5.414,4.862,8.39,6.967
			c0.112,0.079,0.223,0.16,0.336,0.239c0.694,0.485,1.397,0.956,2.109,1.416c0.117,0.076,0.234,0.15,0.351,0.225
			c0.739,0.471,1.486,0.932,2.243,1.376c0.04,0.024,0.081,0.046,0.121,0.069c2.597,1.516,5.311,2.85,8.107,4.029l0.097,0.083
			c8.361,3.509,17.541,5.452,27.177,5.452c11.022,0,21.448-2.543,30.732-7.065c0.007-0.008,0.012-0.016,0.019-0.024
			c0.115-0.056,0.232-0.107,0.346-0.163c0.277-0.137,0.55-0.282,0.825-0.423c0.662-0.338,1.322-0.676,1.972-1.035
			c0.109-0.06,0.215-0.125,0.323-0.186c1.109-0.619,2.197-1.27,3.267-1.947c0.035-0.022,0.07-0.045,0.105-0.068
			c1.061-0.675,2.104-1.376,3.127-2.104c0.288-0.205,0.579-0.405,0.864-0.614c0.516-0.38,1.022-0.772,1.527-1.165
			c0.221-0.172,0.441-0.344,0.66-0.519c0.106-0.084,0.214-0.166,0.319-0.251c0.479-0.386,0.95-0.781,1.418-1.179
			c0.243-0.207,0.483-0.417,0.723-0.627c0.091-0.079,0.184-0.157,0.274-0.237c0.45-0.397,0.896-0.799,1.335-1.208
			c0.336-0.313,0.667-0.631,0.997-0.95c0.421-0.407,0.841-0.814,1.251-1.23c0.077-0.078,0.151-0.16,0.228-0.239
			c0.254-0.264,0.506-0.529,0.758-0.795c0.393-0.416,0.79-0.828,1.172-1.253c0.127-0.142,0.249-0.288,0.374-0.432
			c0.216-0.244,0.427-0.492,0.64-0.739c0.604-0.701,1.194-1.414,1.771-2.139c0.306-0.385,0.611-0.771,0.912-1.16
			c0.068-0.09,0.141-0.176,0.209-0.266c0.3-0.397,0.585-0.806,0.876-1.21c0.31-0.429,0.62-0.857,0.92-1.294
			c0.02-0.029,0.041-0.057,0.061-0.086c0.285-0.416,0.559-0.84,0.836-1.262c0.309-0.472,0.616-0.946,0.914-1.426
			c0.263-0.423,0.518-0.851,0.772-1.281c0.201-0.339,0.395-0.683,0.59-1.026c0.089-0.157,0.182-0.312,0.27-0.47
			c0.237-0.425,0.472-0.852,0.701-1.282c0.188-0.355,0.367-0.715,0.549-1.073c0.09-0.178,0.183-0.353,0.272-0.531
			c0.209-0.418,0.419-0.836,0.62-1.258c0.28-0.591,0.546-1.191,0.81-1.791c0.167-0.379,0.341-0.755,0.502-1.138
			c0.356-0.849,0.692-1.708,1.015-2.574c0.068-0.181,0.139-0.359,0.205-0.541c0.255-0.702,0.487-1.416,0.72-2.128
			c0.087-0.267,0.185-0.528,0.269-0.796c0.111-0.352,0.208-0.711,0.313-1.065c0.132-0.445,0.257-0.892,0.381-1.34
			c0.069-0.247,0.145-0.492,0.21-0.74c0.11-0.416,0.208-0.836,0.31-1.255c0.158-0.649,0.312-1.3,0.451-1.956
			c0.094-0.44,0.181-0.882,0.267-1.325c0.11-0.571,0.211-1.145,0.307-1.721c0.014-0.081,0.03-0.161,0.043-0.242
			c0.073-0.444,0.144-0.889,0.208-1.336c0.086-0.599,0.158-1.203,0.23-1.808c0.009-0.078,0.021-0.154,0.03-0.232
			c0.049-0.432,0.102-0.862,0.144-1.297c0.072-0.753,0.125-1.512,0.173-2.272c0.023-0.366,0.055-0.73,0.073-1.098
			c0.054-1.129,0.086-2.265,0.086-3.408c0-0.953-0.034-1.898-0.072-2.842c-0.02-0.46-0.038-0.92-0.066-1.377
			c-0.023-0.392-0.059-0.78-0.089-1.171c-0.081-1.051-0.18-2.097-0.307-3.134c-0.045-0.372-0.091-0.743-0.142-1.113
			c-0.166-1.206-0.36-2.404-0.586-3.59c-0.029-0.153-0.052-0.308-0.082-0.461c-0.094-0.476-0.2-0.949-0.303-1.422
			c-0.112-0.511-0.229-1.02-0.352-1.527c-0.104-0.43-0.205-0.862-0.317-1.289l-1.288-4.284c-0.061-0.183-0.122-0.364-0.185-0.546
			l-11.143,34.673c-0.131,0.407-0.223,0.826-0.275,1.251l-1.934,15.795c-0.27,2.203-1.601,4.135-3.564,5.172l-27.284,14.413
			c-19.997,8.998-34.945,4.583-41.264,1.751l-30.599-16.164c-1.963-1.037-3.294-2.969-3.564-5.172l-1.934-15.795
			c-0.052-0.424-0.144-0.844-0.275-1.251l-11.143-34.673c-0.063,0.183-0.125,0.366-0.186,0.55l-1.287,4.28
			c-0.112,0.425-0.212,0.854-0.315,1.283c-0.124,0.511-0.242,1.024-0.355,1.54c-0.103,0.47-0.208,0.94-0.302,1.414
			c-0.031,0.155-0.054,0.312-0.083,0.467c-0.226,1.184-0.419,2.378-0.585,3.582c-0.051,0.371-0.097,0.744-0.142,1.118
			c-0.126,1.035-0.225,2.077-0.306,3.124c-0.03,0.397-0.067,0.792-0.09,1.19c-0.027,0.451-0.044,0.905-0.064,1.358
			c-0.038,0.947-0.072,1.895-0.072,2.851c0,1.135,0.032,2.262,0.086,3.384C198.787,181.483,198.817,181.838,198.84,182.195z"/>
		<g style="opacity:0.1;">
			<path d="M295.758,223.937l27.284-14.413c1.963-1.037,3.294-2.969,3.564-5.172l1.934-15.795c0.052-0.425,0.144-0.843,0.275-1.251
				l8.412-26.175c-0.106-0.437-0.188-0.884-0.303-1.318l-1.288-4.284c-0.061-0.183-0.122-0.365-0.185-0.546l-11.143,34.673
				c-0.131,0.407-0.223,0.826-0.275,1.251l-1.934,15.795c-0.27,2.203-1.601,4.135-3.564,5.172l-23.046,12.174
				C295.58,224.008,295.666,223.978,295.758,223.937z"/>
			<path d="M302.633,239.327c-0.308,0.14-0.614,0.282-0.924,0.418c-0.647,0.285-1.3,0.558-1.958,0.823
				c-0.314,0.127-0.63,0.251-0.946,0.373c-0.67,0.259-1.344,0.511-2.023,0.75c-0.297,0.104-0.596,0.202-0.895,0.303
				c-0.714,0.24-1.429,0.476-2.153,0.694c-0.213,0.064-0.429,0.12-0.643,0.182c-1.766,0.513-3.557,0.967-5.377,1.342l-0.017,0.013
				c-4.595,0.945-9.353,1.443-14.227,1.443c-5.691,0-11.217-0.694-16.516-1.971c-0.001-0.001-0.001-0.002-0.001-0.002
				c-0.946-0.229-1.883-0.476-2.813-0.742c-0.033-0.01-0.067-0.019-0.1-0.029c-0.926-0.266-1.845-0.55-2.756-0.852
				c-0.016-0.005-0.031-0.011-0.047-0.016c-4.615-1.538-9.016-3.542-13.15-5.954c-0.038-0.022-0.077-0.044-0.115-0.066
				c-0.76-0.446-1.509-0.908-2.25-1.38c-0.115-0.074-0.23-0.147-0.345-0.221c-0.714-0.461-1.42-0.935-2.117-1.421
				c-0.111-0.078-0.22-0.157-0.331-0.235c-2.98-2.107-5.787-4.441-8.399-6.975c-0.094-0.091-0.191-0.18-0.285-0.271
				c-0.526-0.516-1.038-1.046-1.547-1.578c-0.21-0.22-0.422-0.438-0.63-0.661c-0.464-0.497-0.918-1.002-1.367-1.512
				c-0.239-0.271-0.475-0.544-0.71-0.819c-0.424-0.496-0.843-0.997-1.253-1.505c-0.242-0.301-0.479-0.606-0.716-0.911
				c-0.393-0.504-0.786-1.009-1.166-1.524c-0.234-0.317-0.457-0.643-0.685-0.964c-0.676-0.95-1.328-1.919-1.958-2.903
				c-0.233-0.364-0.473-0.722-0.699-1.091c-0.278-0.453-0.539-0.917-0.807-1.376c-0.265-0.454-0.532-0.907-0.787-1.368
				c-0.251-0.454-0.49-0.915-0.731-1.376c-0.253-0.482-0.504-0.966-0.745-1.455c-0.224-0.454-0.442-0.911-0.657-1.37
				c-0.242-0.517-0.476-1.037-0.706-1.561c-0.195-0.444-0.389-0.889-0.575-1.338c-0.237-0.573-0.461-1.153-0.683-1.733
				c-0.157-0.411-0.32-0.82-0.47-1.235c-0.276-0.765-0.534-1.539-0.783-2.316c-0.077-0.24-0.164-0.475-0.239-0.716
				c-0.313-1.01-0.601-2.032-0.87-3.062c-0.091-0.347-0.168-0.7-0.253-1.049c-0.173-0.707-0.341-1.416-0.492-2.131
				c-0.087-0.413-0.164-0.829-0.244-1.244c-0.128-0.666-0.249-1.335-0.359-2.008c-0.07-0.43-0.135-0.863-0.197-1.296
				c-0.098-0.681-0.183-1.366-0.261-2.053c-0.047-0.42-0.097-0.84-0.137-1.262c-0.071-0.75-0.125-1.505-0.172-2.262
				c-0.023-0.361-0.053-0.72-0.07-1.082c-0.053-1.12-0.085-2.246-0.085-3.379c0-1.418,0.054-2.823,0.137-4.22
				c0.023-0.392,0.059-0.78,0.089-1.171c0.081-1.051,0.18-2.097,0.307-3.134c0.045-0.372,0.091-0.743,0.142-1.113
				c0.166-1.206,0.36-2.404,0.586-3.591c0.029-0.153,0.052-0.308,0.082-0.46c0.012-0.06,0.029-0.118,0.041-0.178l-2.102-6.54
				c-0.062,0.182-0.124,0.364-0.185,0.546l-1.288,4.284c-0.367,1.396-0.69,2.81-0.973,4.238c-0.03,0.152-0.053,0.307-0.082,0.46
				c-0.227,1.187-0.42,2.384-0.586,3.591c-0.051,0.37-0.096,0.741-0.141,1.113c-0.126,1.038-0.226,2.083-0.307,3.134
				c-0.03,0.39-0.066,0.779-0.089,1.171c-0.083,1.397-0.137,2.802-0.137,4.22c0,1.133,0.032,2.259,0.085,3.379
				c0.017,0.363,0.048,0.721,0.07,1.082c0.047,0.757,0.101,1.512,0.172,2.262c0.04,0.422,0.089,0.842,0.137,1.262
				c0.078,0.687,0.163,1.372,0.261,2.053c0.062,0.433,0.127,0.865,0.197,1.296c0.109,0.673,0.231,1.342,0.358,2.008
				c0.08,0.415,0.157,0.831,0.244,1.244c0.151,0.715,0.319,1.424,0.492,2.131c0.085,0.349,0.162,0.702,0.253,1.049
				c0.268,1.029,0.556,2.051,0.87,3.062c0.075,0.241,0.161,0.476,0.239,0.716c0.25,0.777,0.507,1.551,0.783,2.315
				c0.15,0.415,0.313,0.824,0.47,1.235c0.222,0.58,0.446,1.16,0.683,1.733c0.186,0.449,0.38,0.894,0.574,1.338
				c0.229,0.524,0.464,1.044,0.706,1.561c0.215,0.459,0.433,0.917,0.657,1.37c0.242,0.489,0.493,0.973,0.745,1.455
				c0.241,0.46,0.481,0.921,0.732,1.376c0.255,0.461,0.522,0.913,0.787,1.368c0.268,0.46,0.529,0.923,0.807,1.376
				c0.226,0.369,0.467,0.727,0.699,1.091c0.63,0.985,1.281,1.953,1.958,2.903c0.229,0.321,0.452,0.646,0.685,0.964
				c0.38,0.515,0.773,1.019,1.166,1.524c0.237,0.305,0.473,0.61,0.716,0.911c0.41,0.508,0.829,1.009,1.253,1.505
				c0.234,0.275,0.471,0.548,0.71,0.819c0.449,0.51,0.903,1.016,1.367,1.512c0.207,0.223,0.419,0.441,0.63,0.661
				c0.509,0.532,1.021,1.062,1.547,1.578c0.094,0.092,0.191,0.18,0.285,0.271c2.612,2.534,5.419,4.868,8.399,6.975
				c0.111,0.078,0.22,0.158,0.331,0.235c0.696,0.486,1.402,0.96,2.116,1.421c0.115,0.074,0.23,0.148,0.345,0.221
				c0.741,0.473,1.49,0.935,2.25,1.38c0.038,0.022,0.077,0.044,0.115,0.066c4.134,2.413,8.535,4.417,13.15,5.955
				c0.015,0.005,0.031,0.011,0.047,0.016c0.91,0.303,1.829,0.587,2.756,0.852c0.033,0.01,0.067,0.019,0.1,0.029
				c0.93,0.265,1.867,0.513,2.812,0.741l0.002,0.002c5.299,1.277,10.825,1.971,16.516,1.971c4.874,0,9.633-0.498,14.228-1.442
				l0.017-0.013c1.82-0.375,3.611-0.829,5.378-1.341c0.214-0.062,0.43-0.118,0.643-0.183c0.724-0.218,1.439-0.454,2.153-0.694
				c0.298-0.1,0.598-0.199,0.895-0.303c0.68-0.239,1.353-0.491,2.023-0.75c0.316-0.122,0.632-0.246,0.946-0.373
				c0.657-0.265,1.31-0.539,1.958-0.823c0.31-0.136,0.617-0.278,0.924-0.418c0.649-0.296,1.296-0.597,1.935-0.912
				c0.273-0.135,0.541-0.277,0.812-0.416c0.666-0.34,1.332-0.681,1.985-1.042c0.107-0.059,0.212-0.124,0.319-0.184
				c0.146-0.081,0.284-0.174,0.429-0.256C303.282,239.02,302.96,239.178,302.633,239.327z"/>
		</g>
		<g>
			<path style="fill:#754C24;" d="M249.483,120.424c28.755-8.666,51.861,26.619,73.128,15.416
				c8.16-4.299,13.486-14.091,12.559-22.033c-2.309-19.77-44.755-39.901-73.205-28.621c-20.112,7.974-32.373,31.307-46.548,26.57
				c-4.846-1.62-7.395-5.677-12.603-4.861c-6.486,1.016-12.372,8.85-12.222,16.021c0.209,10.023,12.202,18.512,22.554,19.27
				C228.908,143.341,231.396,125.875,249.483,120.424z"/>
			<g style="opacity:0.2;">
				<path d="M222.46,134.622c-10.351-0.758-22.345-9.246-22.554-19.27c-0.059-2.826,0.829-5.749,2.312-8.323
					c-6.245,1.386-11.771,8.939-11.627,15.889c0.209,10.024,12.202,18.512,22.554,19.27c8.277,0.606,12.895-3.923,18.032-9.15
					C228.703,134.238,225.897,134.873,222.46,134.622z"/>
				<path d="M258.798,112.859c-7.425,2.238-12.22,6.5-16.385,10.668c2.082-1.228,4.403-2.298,7.071-3.102
					c28.755-8.666,51.861,26.619,73.128,15.416c3.117-1.642,5.815-4.088,7.914-6.923
					C309.643,137.927,286.924,104.383,258.798,112.859z"/>
			</g>
		</g>
		<polygon style="fill:#3BEFFF;" points="273.468,276.979 310.891,248.018 304.926,298.174 		"/>
		<polygon style="fill:#3BEFFF;" points="260.445,276.979 223.022,248.018 228.987,298.174 		"/>
		
			<line style="fill:none;stroke:#00302D;stroke-width:3;stroke-miterlimit:10;" x1="189.297" y1="347.389" x2="189.297" y2="435.756"/>
		
			<line style="fill:none;stroke:#00302D;stroke-width:3;stroke-miterlimit:10;" x1="344.675" y1="347.389" x2="344.675" y2="435.756"/>
		<path style="fill:#00302D;" d="M272.466,312.882c0,2.489-2.018,4.507-4.507,4.507c-2.489,0-4.507-2.018-4.507-4.507
			s2.018-4.507,4.507-4.507C270.448,308.375,272.466,310.393,272.466,312.882z"/>
		<path style="fill:#00302D;" d="M272.466,347.389c0,2.489-2.018,4.507-4.507,4.507c-2.489,0-4.507-2.018-4.507-4.507
			c0-2.489,2.018-4.507,4.507-4.507C270.448,342.882,272.466,344.9,272.466,347.389z"/>
		<path style="fill:#00302D;" d="M272.466,381.895c0,2.489-2.018,4.507-4.507,4.507c-2.489,0-4.507-2.018-4.507-4.507
			c0-2.489,2.018-4.507,4.507-4.507C270.448,377.388,272.466,379.406,272.466,381.895z"/>
		<path style="fill:#00302D;" d="M272.466,416.401c0,2.489-2.018,4.507-4.507,4.507c-2.489,0-4.507-2.018-4.507-4.507
			c0-2.489,2.018-4.507,4.507-4.507C270.448,411.895,272.466,413.913,272.466,416.401z"/>
		<rect x="304.062" y="326.589" style="fill:#00302D;" width="30.801" height="7.179"/>
		<g>
			<path style="fill:#00302D;" d="M251.21,223.232c0,3.469-4.47,6.282-9.984,6.282c-5.514,0-9.984-2.812-9.984-6.282
				c0-3.469,4.47-6.282,9.984-6.282C246.74,216.95,251.21,219.763,251.21,223.232z"/>
			<path style="opacity:0.3;fill:#FFFFFF;" d="M241.226,221.493c0,1.071-1.38,1.939-3.081,1.939c-1.702,0-3.081-0.868-3.081-1.939
				c0-1.071,1.38-1.939,3.081-1.939C239.846,219.554,241.226,220.422,241.226,221.493z"/>
			<path style="fill:none;stroke:#00302D;stroke-width:4;stroke-linecap:round;stroke-linejoin:round;stroke-miterlimit:10;" d="
				M203.602,160.522c-11.852,16.543-11.53,38.165,0,52.321c13.293,16.321,34.907,14.644,36.736,14.472"/>
		</g>
		<path style="fill:none;stroke:#00302D;stroke-width:7;stroke-linecap:round;stroke-linejoin:round;stroke-miterlimit:10;" d="
			M204.797,140.059c-1.222,6.63-1.258,11.123-1.258,11.123"/>
		<path style="fill:none;stroke:#00302D;stroke-width:4;stroke-linecap:round;stroke-linejoin:round;stroke-miterlimit:10;" d="
			M204.797,140.059"/>
		<path style="fill:none;stroke:#00302D;stroke-width:7;stroke-linecap:round;stroke-linejoin:round;stroke-miterlimit:10;" d="
			M334.249,160.236c0-37.039-30.026-67.065-67.065-67.065c-28.627,0-45.031,12.429-54.431,26.587"/>
		<g>
			<path style="fill:#F74A98;" d="M192.411,179.399h-0.506c-5.442,0-9.894-4.452-9.894-9.894v-0.506
				c0-5.442,4.452-9.894,9.894-9.894h0.506c5.442,0,9.894,4.452,9.894,9.894v0.506C202.305,174.946,197.853,179.399,192.411,179.399
				z"/>
			<path style="fill:#F74A98;" d="M202.072,189.216h-5.454c-5.442,0-9.894-4.452-9.894-9.894v-20.141
				c0-5.442,4.452-9.894,9.894-9.894h5.454c5.442,0,9.894,4.452,9.894,9.894v20.141
				C211.966,184.764,207.514,189.216,202.072,189.216z"/>
			<path style="opacity:0.1;" d="M207.106,185.269h-3.332c-6.025,0-10.955-4.079-10.955-9.065v-21.798
				c0-1.724,0.6-3.335,1.621-4.711c-4.457,1.15-7.716,4.604-7.716,8.658v21.798c0,4.986,4.93,9.065,10.955,9.065h3.332
				c3.941,0,7.403-1.751,9.334-4.354C209.32,185.126,208.232,185.269,207.106,185.269z"/>
		</g>
		<g>
			<path style="fill:#F74A98;" d="M347.626,179.399h-0.506c-5.442,0-9.894-4.452-9.894-9.894v-0.506
				c0-5.442,4.452-9.894,9.894-9.894h0.506c5.442,0,9.894,4.452,9.894,9.894v0.506C357.52,174.946,353.068,179.399,347.626,179.399z
				"/>
			<path style="fill:#F74A98;" d="M342.299,189.216h-5.454c-5.442,0-9.894-4.452-9.894-9.894v-20.141
				c0-5.442,4.452-9.894,9.894-9.894h5.454c5.442,0,9.894,4.452,9.894,9.894v20.141
				C352.193,184.764,347.741,189.216,342.299,189.216z"/>
			<path style="opacity:0.1;" d="M347.333,185.269h-3.332c-6.025,0-10.955-4.079-10.955-9.065v-21.798
				c0-1.724,0.6-3.335,1.621-4.711c-4.457,1.15-7.716,4.604-7.716,8.658v21.798c0,4.986,4.93,9.065,10.955,9.065h3.332
				c3.941,0,7.403-1.751,9.334-4.354C349.547,185.126,348.459,185.269,347.333,185.269z"/>
		</g>
		<path style="fill:none;stroke:#00302D;stroke-width:14;stroke-linecap:round;stroke-linejoin:round;stroke-miterlimit:10;" d="
			M293.289,98.442c-8.023-3.394-16.845-5.27-26.105-5.27c-11.269,0-20.644,1.926-28.443,5.125"/>
	</g>
	<rect x="51.545" y="76.655" style="fill:none;" width="108.46" height="84.153"/>
	<text transform="matrix(1 0 0 1 51.5453 92.2748)"><tspan x="0" y="0" style="fill:#FFFFFF; font-family:'SFArchRival'; font-size:22px;">HOW CAN </tspan><tspan x="0" y="26.4" style="fill:#FFFFFF; font-family:'SFArchRival'; font-size:22px;">WE HELP </tspan><tspan x="0" y="52.8" style="fill:#FFFFFF; font-family:'SFArchRival'; font-size:22px;">YOU?</tspan></text>
</g>
<g id="DESIGNED_BY_FREEPIK">
	<g>
		<g>
			<g>
				<g id="XMLID_29_">
					<g id="XMLID_48_">
						<path id="XMLID_56_" d="M259.571,463.53c-0.433,0.442-0.806,0.929-1.112,1.45l-0.465-0.242
							c-0.066-0.298-0.348-0.503-0.658-0.468c-0.331,0.038-0.569,0.337-0.531,0.668c0.038,0.331,0.337,0.569,0.668,0.53
							c0.066-0.008,0.127-0.026,0.184-0.052l0.451,0.235c-0.252,0.553-0.436,1.138-0.544,1.743l0.746,0.133
							c0.233-1.305,0.856-2.504,1.801-3.468L259.571,463.53z"/>
						<path id="XMLID_55_" d="M265.065,461.241c-0.171,0-0.341,0.005-0.51,0.016l-0.072-0.626c0.188-0.149,0.297-0.388,0.267-0.644
							c-0.045-0.393-0.401-0.675-0.794-0.63c-0.393,0.045-0.675,0.401-0.63,0.794c0.029,0.254,0.188,0.462,0.403,0.565l0.072,0.625
							c-0.714,0.114-1.404,0.328-2.061,0.641l0.325,0.685c0.935-0.444,1.943-0.668,2.997-0.666c0.496,0.001,0.992,0.055,1.475,0.161
							l0.162-0.74C266.165,461.303,265.615,461.243,265.065,461.241z"/>
						<path id="XMLID_54_" d="M271.661,463.805c0.331-0.04,0.567-0.34,0.527-0.671s-0.34-0.567-0.671-0.527
							c-0.31,0.037-0.536,0.302-0.531,0.608l-0.417,0.362c-0.417-0.431-0.887-0.815-1.405-1.143l-0.406,0.64
							c1.133,0.717,2.016,1.731,2.556,2.932l0.691-0.311c-0.249-0.555-0.565-1.073-0.938-1.547l0.403-0.35
							C271.532,463.81,271.596,463.813,271.661,463.805z"/>
						<path id="XMLID_53_" d="M264.492,471.448c-0.386,0.022-0.775,0.033-1.157,0.032c-0.88-0.002-1.733-0.065-2.478-0.185
							c-0.39-0.063-0.846-0.157-1.27-0.295c1.042,1.864,3.062,3.133,5.381,3.139c2.855,0.007,5.267-1.903,5.961-4.489
							c-0.683,0.448-1.507,0.822-2.461,1.116C267.287,471.131,265.911,471.367,264.492,471.448z"/>
						<path id="XMLID_49_" d="M265.061,462.758c-3.352-0.008-6.086,2.651-6.095,5.928c-0.001,0.425,0.044,0.849,0.134,1.262
							c0.672,0.484,2.703,0.897,5.346,0.744c2.88-0.166,5.299-0.944,6.678-2.142c-0.005-0.195-0.02-0.39-0.044-0.582
							C270.707,465.005,268.12,462.765,265.061,462.758z M262.885,469.267c-1.02-0.003-1.848-0.834-1.845-1.854
							c0.003-1.02,0.834-1.848,1.854-1.845c1.02,0.003,1.848,0.835,1.845,1.854C264.737,468.442,263.905,469.27,262.885,469.267z
							 M267.625,468.371c-0.75-0.002-1.359-0.613-1.357-1.364c0.002-0.75,0.614-1.359,1.364-1.357
							c0.75,0.002,1.359,0.614,1.357,1.364C268.987,467.764,268.375,468.372,267.625,468.371z"/>
					</g>
					<path id="XMLID_46_" d="M281.06,464.665c-0.294-0.117-0.805-0.311-1.382-0.241c-0.551,0.067-0.845,0.338-0.846,1.004
						l-0.002,0.866l2.228,0.006l-0.004,1.717l-2.228-0.006l-0.014,5.455l-1.932-0.005l0.014-5.455l-1.34-0.003l0.004-1.717
						l1.34,0.003l0.002-0.888c0.004-1.68,0.902-2.781,2.575-2.776c0.643,0.002,1.157,0.125,1.589,0.312L281.06,464.665z"/>
					<path id="XMLID_44_" d="M285.754,468.009c-0.177-0.03-0.358-0.047-0.526-0.047c-0.896-0.002-1.511,0.544-1.514,1.61
						l-0.01,3.908l-1.932-0.005l0.018-7.172l1.872,0.005l-0.002,0.785c0.453-0.672,1.142-0.974,2.023-0.972
						c0.414,0.001,0.848,0.13,1.094,0.339L285.754,468.009z"/>
					<path id="XMLID_41_" d="M293.417,469.906c-0.001,0.222-0.016,0.489-0.039,0.651l-5.085-0.013
						c0.205,1.037,0.929,1.49,1.839,1.492c0.622,0.001,1.296-0.248,1.815-0.684l1.129,1.246c-0.816,0.745-1.853,1.083-3.059,1.08
						c-2.198-0.005-3.719-1.504-3.713-3.762c0.006-2.258,1.49-3.793,3.636-3.788C292.005,466.135,293.415,467.671,293.417,469.906z
						 M288.304,469.227l3.175,0.008c-0.175-0.918-0.729-1.438-1.558-1.44C289.011,467.793,288.476,468.339,288.304,469.227z"/>
					<path id="XMLID_38_" d="M301.07,469.925c-0.001,0.222-0.016,0.488-0.039,0.651l-5.085-0.013
						c0.205,1.037,0.929,1.49,1.839,1.492c0.622,0.001,1.296-0.248,1.815-0.684l1.129,1.246c-0.816,0.746-1.853,1.083-3.059,1.081
						c-2.198-0.006-3.719-1.505-3.714-3.762c0.006-2.258,1.49-3.793,3.636-3.788C299.658,466.154,301.068,467.69,301.07,469.925z
						 M295.957,469.246l3.175,0.008c-0.175-0.918-0.729-1.438-1.558-1.44C296.664,467.812,296.13,468.359,295.957,469.246z"/>
					<path id="XMLID_35_" d="M309.415,469.954c-0.005,2.154-1.504,3.771-3.481,3.766c-0.962-0.002-1.642-0.382-2.107-0.938
						l-0.009,3.708l-1.924-0.005l0.025-10.133l1.887,0.005l-0.002,0.792c0.468-0.583,1.157-0.982,2.142-0.979
						C307.93,466.175,309.421,467.8,309.415,469.954z M303.739,469.939c-0.003,1.132,0.743,1.978,1.838,1.981
						c1.14,0.003,1.853-0.876,1.855-1.971c0.003-1.095-0.706-1.978-1.845-1.981C304.491,467.965,303.741,468.807,303.739,469.939z"
						/>
					<path id="XMLID_32_" d="M312.534,464.033c-0.002,0.696-0.543,1.227-1.239,1.225c-0.696-0.002-1.227-0.536-1.226-1.232
						c0.002-0.696,0.536-1.242,1.232-1.24C311.997,462.788,312.536,463.337,312.534,464.033z M312.251,473.55l-1.932-0.005
						l0.018-7.172l1.932,0.005L312.251,473.55z"/>
					<path id="XMLID_30_" d="M315.486,468.94l2.708-2.547l2.368,0.006l-3.487,3.366l3.491,3.806l-2.376-0.006l-2.709-2.908
						l-0.007,2.901l-1.932-0.005l0.027-10.658l1.932,0.005L315.486,468.94z"/>
				</g>
				<g>
					<path d="M183.855,473.164l0.003-1.055c-0.529,0.717-1.395,1.227-2.391,1.225c-1.846-0.005-3.146-1.414-3.14-3.714
						c0.006-2.256,1.298-3.717,3.159-3.713c0.952,0.002,1.815,0.473,2.384,1.251l0.009-3.765l1.099,0.003l-0.024,9.77
						L183.855,473.164z M183.86,471.245l0.008-3.208c-0.394-0.616-1.242-1.146-2.121-1.148c-1.421-0.004-2.273,1.166-2.277,2.734
						c-0.004,1.567,0.843,2.726,2.264,2.73C182.613,472.355,183.463,471.859,183.86,471.245z"/>
					<path d="M186.384,469.625c0.005-2.051,1.474-3.702,3.495-3.697c2.139,0.005,3.394,1.678,3.389,3.802l-0.001,0.279l-5.727-0.014
						c0.085,1.333,1.019,2.448,2.543,2.452c0.805,0.002,1.627-0.318,2.185-0.888l0.525,0.719c-0.705,0.701-1.658,1.08-2.815,1.077
						C187.883,473.349,186.378,471.837,186.384,469.625z M189.862,466.836c-1.509-0.004-2.259,1.269-2.32,2.352l4.643,0.012
						C192.173,468.146,191.473,466.84,189.862,466.836z"/>
					<path d="M194.052,472.252l0.573-0.789c0.467,0.543,1.36,1.014,2.326,1.017c1.084,0.003,1.671-0.509,1.673-1.212
						c0.004-1.714-4.378-0.67-4.372-3.292c0.003-1.098,0.957-2.034,2.641-2.029c1.201,0.003,2.05,0.459,2.62,1.032l-0.515,0.76
						c-0.423-0.514-1.199-0.897-2.107-0.899c-0.967-0.002-1.568,0.479-1.57,1.109c-0.004,1.553,4.378,0.538,4.371,3.292
						c-0.003,1.187-0.957,2.136-2.788,2.132C195.749,473.369,194.768,473.015,194.052,472.252z"/>
					<path d="M200.942,464.388c0.001-0.41,0.339-0.746,0.734-0.745c0.41,0.001,0.746,0.339,0.745,0.749
						c-0.001,0.41-0.339,0.731-0.749,0.73C201.277,465.121,200.941,464.799,200.942,464.388z M201.11,473.207l0.018-7.075
						l1.099,0.003l-0.018,7.075L201.11,473.207z"/>
					<path d="M204.02,475.03l0.559-0.819c0.584,0.705,1.287,0.97,2.297,0.973c1.172,0.003,2.272-0.566,2.276-2.118l0.003-1.011
						c-0.514,0.717-1.38,1.256-2.376,1.254c-1.845-0.005-3.146-1.385-3.14-3.67c0.006-2.27,1.298-3.673,3.158-3.669
						c0.952,0.002,1.801,0.473,2.37,1.251l0.003-1.069l1.098,0.003l-0.017,6.87c-0.006,2.344-1.648,3.072-3.377,3.068
						C205.673,476.089,204.853,475.853,204.02,475.03z M209.157,471.191l0.008-3.091c-0.379-0.616-1.228-1.146-2.106-1.148
						c-1.421-0.004-2.273,1.122-2.277,2.69c-0.004,1.553,0.843,2.697,2.264,2.701C207.923,472.345,208.774,471.805,209.157,471.191z
						"/>
					<path d="M216.856,473.246l0.012-4.629c0.003-1.245-0.626-1.642-1.578-1.645c-0.865-0.002-1.686,0.523-2.097,1.094l-0.013,5.17
						l-1.099-0.003l0.018-7.075l1.099,0.003l-0.003,1.025c0.499-0.585,1.467-1.198,2.522-1.195c1.48,0.004,2.254,0.753,2.25,2.291
						l-0.012,4.966L216.856,473.246z"/>
					<path d="M219.384,469.708c0.005-2.051,1.474-3.702,3.496-3.697c2.139,0.005,3.394,1.678,3.389,3.802l-0.001,0.279l-5.727-0.014
						c0.084,1.333,1.019,2.448,2.542,2.452c0.806,0.002,1.627-0.318,2.185-0.888l0.525,0.719c-0.705,0.701-1.658,1.08-2.815,1.077
						C220.884,473.432,219.379,471.92,219.384,469.708z M222.863,466.919c-1.509-0.004-2.259,1.269-2.32,2.352l4.643,0.012
						C225.174,468.228,224.474,466.923,222.863,466.919z"/>
					<path d="M232.793,473.286l0.003-1.055c-0.529,0.717-1.395,1.227-2.391,1.224c-1.846-0.005-3.146-1.414-3.14-3.714
						c0.006-2.256,1.298-3.717,3.159-3.713c0.952,0.002,1.816,0.473,2.385,1.251l0.009-3.765l1.098,0.003l-0.025,9.77
						L232.793,473.286z M232.798,471.367l0.008-3.208c-0.394-0.616-1.242-1.146-2.121-1.148c-1.421-0.004-2.273,1.166-2.277,2.734
						c-0.004,1.567,0.843,2.726,2.263,2.73C231.55,472.478,232.4,471.982,232.798,471.367z"/>
					<path d="M239.135,473.302l0.025-9.77l1.098,0.003l-0.009,3.765c0.574-0.775,1.424-1.242,2.391-1.239
						c1.845,0.005,3.146,1.473,3.14,3.729c-0.006,2.299-1.313,3.702-3.159,3.698c-0.996-0.003-1.859-0.517-2.385-1.237l-0.003,1.055
						L239.135,473.302z M242.345,472.504c1.436,0.004,2.288-1.151,2.292-2.718c0.004-1.568-0.843-2.742-2.279-2.745
						c-0.864-0.002-1.73,0.523-2.112,1.138l-0.008,3.208C240.618,472.002,241.481,472.502,242.345,472.504z"/>
					<path d="M246.967,475.094c0.161,0.074,0.425,0.118,0.6,0.119c0.483,0.001,0.806-0.159,1.057-0.744l0.471-1.068l-2.941-7.155
						l1.187,0.003l2.344,5.806l2.358-5.795l1.201,0.003l-3.566,8.502c-0.427,1.024-1.146,1.418-2.084,1.43
						c-0.234-0.001-0.601-0.045-0.805-0.105L246.967,475.094z"/>
				</g>
			</g>
		</g>
	</g>
</g>
</svg>
