<?xml version="1.0" encoding="UTF-8" standalone="no"?>
<!-- Created with Inkscape (http://www.inkscape.org/) -->

<svg
   version="1.1"
   id="svg2"
   width="519.62665"
   height="389.14667"
   viewBox="0 0 519.62665 389.14667"
   sodipodi:docname="6868283_28948.eps"
   xmlns:inkscape="http://www.inkscape.org/namespaces/inkscape"
   xmlns:sodipodi="http://sodipodi.sourceforge.net/DTD/sodipodi-0.dtd"
   xmlns="http://www.w3.org/2000/svg"
   xmlns:svg="http://www.w3.org/2000/svg">
  <defs
     id="defs6" />
  <sodipodi:namedview
     id="namedview4"
     pagecolor="#ffffff"
     bordercolor="#000000"
     borderopacity="0.25"
     inkscape:showpageshadow="2"
     inkscape:pageopacity="0.0"
     inkscape:pagecheckerboard="0"
     inkscape:deskcolor="#d1d1d1" />
  <g
     id="g8"
     inkscape:groupmode="layer"
     inkscape:label="ink_ext_XXXXXX"
     transform="matrix(1.3333333,0,0,-1.3333333,0,389.14667)">
    <g
       id="g10"
       transform="scale(0.1)">
      <path
         d="m 3372.12,810.27 c -5.54,0 -10.91,0.3 -16.03,0.878 -59.28,6.661 -124.06,83.332 -183.01,113.102 -58.96,29.75 -107.72,66.898 -65.26,103.7 21.86,18.94 79.57,51.68 130.46,79.01 l -57.08,32.95 361.2,209.37 349.76,-201.94 -361.19,-209.36 C 3508.68,843.73 3430.64,810.27 3372.12,810.27"
         style="fill:#ece1f3;fill-opacity:1;fill-rule:nonzero;stroke:none"
         id="path12" />
      <path
         d="m 2636.72,1065.25 -457.14,263.93 472.08,273.64 51.2,-29.56 c 1.62,1.78 3.41,3.6 5.52,5.48 41.91,37.29 84.38,70.83 138.67,70.83 30.04,0 63.7,-10.28 102.86,-35.85 33.18,-21.67 74.73,-37.83 113.57,-54.21 14.12,-35.52 23.83,-60.78 23.83,-60.78 0,0 15.88,-10.29 35.49,-10.29 3.74,0 7.63,0.38 11.57,1.27 11.2,2.56 19.09,11.42 23.27,17.38 20.76,-19.38 31.15,-43.15 23.56,-75.23 -11.3,-47.81 -41.12,-75.54 -75.71,-91.06 l 3.31,-1.91 -472.08,-273.64"
         style="fill:#ece1f3;fill-opacity:1;fill-rule:nonzero;stroke:none"
         id="path14" />
      <path
         d="M 1134.18,548.82 C 1085.1,548.832 1005,582.172 889.77,659.32 681.656,798.672 329.715,977.02 192.648,1016.9 11.3047,1069.67 -42.1992,1130.23 32.9258,1191.05 c 49.5508,40.11 88.8322,58.46 126.6402,58.46 52.942,0 102.985,-35.99 174.211,-98.62 96.168,-84.56 503.871,-253.21 682.263,-342.699 178.39,-89.492 178.64,-127.461 178.64,-195.242 0,-40.699 -19.35,-64.129 -60.5,-64.129"
         style="fill:#ece1f3;fill-opacity:1;fill-rule:nonzero;stroke:none"
         id="path16" />
      <path
         d="m 1866.6,0 c -107.77,0.0117188 -223.16,56.7617 -328.19,120.691 -127.03,77.329 -251.03,168.379 -156.48,264.418 48.07,48.84 99.37,71.903 157.41,71.903 47.49,0 99.51,-15.453 157.96,-44.852 90.74,-45.648 181.04,-107.09 294.54,-145.328 C 2098.6,230.879 2101.72,143.34 2048.93,79 2022.49,46.7813 1981.95,20.1094 1933.13,7.92188 1911.39,2.48828 1889.17,0 1866.6,0"
         style="fill:#ece1f3;fill-opacity:1;fill-rule:nonzero;stroke:none"
         id="path18" />
      <path
         d="m 3152.34,1523.57 c 4,-4.38 17.02,-16.4 19.02,-29.41 2,-13.03 6.01,-24.04 0,-43.06 -6.01,-19.03 -15.65,-15.94 -15.65,-15.94 0,0 -5.38,-35.13 -19.4,-56.16 -14.02,-21.03 -51.04,-29.02 -69.09,-29.05 -31.05,-0.05 -27.31,21.03 -9.82,53.08 18.55,33.96 31.67,59.81 30.74,85.41 -0.94,25.61 0.1,54.78 0.1,54.78 l 64.1,-19.65"
         style="fill:#2f212f;fill-opacity:1;fill-rule:nonzero;stroke:none"
         id="path20" />
      <path
         d="m 2880.93,1671.06 c 0,0 8.15,-14.91 16.71,-30.34 8.55,-15.42 4.7,-21.32 5.5,-41.96 0.8,-20.64 -35.61,-27.51 -35.61,-27.51 l -9.82,6.34 c 0,0 -4.39,-10.88 -34.28,-28.48 -29.88,-17.58 -65.81,-19.01 -80.59,-10.78 -14.76,8.23 -22.81,12.11 6.35,39.7 29.17,27.59 60.65,67.88 60.65,67.88 l 71.09,25.15"
         style="fill:#2f212f;fill-opacity:1;fill-rule:nonzero;stroke:none"
         id="path22" />
      <path
         d="m 3009.2,2138.62 c 0,0 -57.38,-84.99 -81.63,-140.03 -24.25,-55.05 -79.92,-99.35 -76.59,-107.67 7.89,-19.75 51.63,-86.78 41.05,-146.85 -9.78,-55.61 -4.07,-95.7 -4.07,-95.7 0,0 -50.07,-41.06 -76.1,-13.02 -11.02,54.08 -77.04,279.95 -87.05,297.98 17.4,48.87 56.82,116.88 85.11,208.3 28.29,91.4 58.32,149.76 61.09,151.76 2.75,2 95.41,-55.26 95.41,-55.26 l 42.78,-99.51"
         style="fill:#2f212f;fill-opacity:1;fill-rule:nonzero;stroke:none"
         id="path24" />
      <path
         d="m 3105.08,2245.65 c 0,0 27.55,-47.15 33.56,-111.25 6.01,-64.09 -7.21,-106 -16.91,-186.27 -6.71,-55.47 -22.41,-120.94 -22.41,-120.94 0,0 55.74,-91.48 62.42,-175.42 6.68,-83.95 -0.63,-139.02 -0.63,-139.02 0,0 -9.4,-19.09 -26.74,-23.04 -24.52,-5.58 -47.06,9.02 -47.06,9.02 0,0 -90.4,235.25 -120.89,279.85 -10.19,82.65 -24.3,151.31 -26.81,195.78 -2.52,44.46 12.51,102.18 12.51,102.18 0,0 -57.56,41.79 -28.78,161.59 28.78,119.79 181.74,7.52 181.74,7.52"
         style="fill:#382738;fill-opacity:1;fill-rule:nonzero;stroke:none"
         id="path26" />
      <path
         d="m 2923.34,2660.11 c -2.84,4.06 -52.04,13.38 -76.43,-49.4 -13.68,-35.21 -11.02,-45.27 -27.03,-79.12 -16.03,-33.86 -37.07,-80.11 -37.07,-80.11 0,0 -71.09,38.98 -111.15,84.12 -40.05,45.14 -42.2,114.24 -93.12,120.31 -50.92,6.07 -23.04,-51.25 -3.01,-81.77 8.73,-13.3 36.81,-24.29 55.08,-49.55 23.65,-32.69 49.04,-74.4 58.07,-89.13 16.03,-26.1 36.81,-55.66 58.56,-68.09 29.57,-16.9 35.07,-2.41 65.62,8.01 17.51,5.98 45.86,25.55 72.84,71.25 26.97,45.7 85.03,145.72 37.64,213.48"
         style="fill:#f9aa9a;fill-opacity:1;fill-rule:nonzero;stroke:none"
         id="path28" />
      <path
         d="m 2940.75,2664.71 c 0,0 -75.68,13.73 -109.2,-46.2 -33.52,-59.93 -48.24,-116.07 -48.24,-116.07 0,0 24.93,-28.76 65.62,-47.13 28.94,-13.06 46.13,7.44 46.13,7.44 l 45.69,201.96"
         style="fill:#f2a92b;fill-opacity:1;fill-rule:nonzero;stroke:none"
         id="path30" />
      <path
         d="m 3033.23,2617.34 c -15.32,4.82 -86.5,50.33 -92.48,47.37 -42.97,-21.32 -91.58,-104.77 -97.86,-161.3 -2.59,-23.37 2.51,-84.37 16.43,-121.78 -14.43,-23.37 -2.32,-40.97 -1.48,-47.75 1.44,-11.53 -4.55,-49.97 -8.93,-60.87 -8.45,-21 -16.28,-35.09 -7.78,-43.31 20.74,-20.07 73.52,-49.16 139.97,-60.29 70.49,-11.82 117.7,30.98 139.69,60.29 5.2,6.93 -3.16,43.99 -18.66,53.87 11.81,35.88 23.87,80.65 35.42,123.7 17.38,64.77 46.7,140.43 -8.18,168.46 -23.54,12.01 -62.75,30.63 -96.14,41.61"
         style="fill:#fbc144;fill-opacity:1;fill-rule:nonzero;stroke:none"
         id="path32" />
      <path
         d="m 2979.47,2634.44 c -31.66,-26.62 -79.43,-63.94 -77.46,-113.14 1.97,-49.19 42.19,-70.64 97.35,-40.57 64.97,35.41 80.1,117.86 80.1,117.86 l -32.33,15.19 -67.66,20.66"
         style="fill:#ffffff;fill-opacity:1;fill-rule:nonzero;stroke:none"
         id="path34" />
      <path
         d="m 3026.22,2698 c 0,0 -53.2,-70.59 -71.78,-99.93 -18.58,-29.34 -48.1,-72.59 -18.58,-98.19 17.89,-15.53 53.3,-2.29 82.4,28.67 18.9,20.1 40.5,50.82 46.07,77.15 -18.19,10.03 -38.11,92.3 -38.11,92.3"
         style="fill:#f9aa9a;fill-opacity:1;fill-rule:nonzero;stroke:none"
         id="path36" />
      <path
         d="m 2885.78,2706.3 c 1.05,24.99 6.46,56.39 25.68,74.22 18.98,17.63 51.61,19.37 76.27,17.64 38.22,-2.67 65.12,-44.95 58.37,-93.84 -6.25,-45.16 -36.41,-114.74 -86.76,-124.17 -56.01,-10.49 -75.15,88.14 -73.56,126.15"
         style="fill:#fabeaf;fill-opacity:1;fill-rule:nonzero;stroke:none"
         id="path38" />
      <path
         d="m 3129.37,2575.73 c 0,0 53.44,-17.54 68.34,-61.59 14.89,-44.05 -8.26,-30.04 24.12,-94.95 9.07,-18.2 39.91,-101.87 42.72,-120.6 0.82,-5.48 -9.51,-14.26 -17.13,-19.41 -18.43,-12.46 -39.19,-34.66 -60.23,-42.18 -19.43,-6.94 -62.41,-27.51 -62.41,-27.51 0,0 16.37,-12.65 18.17,-32.45 2,-21.91 -11.68,-38.66 -11.68,-38.66 0,0 20.77,-9.52 24.38,-20.79 3.88,-12.15 -0.81,-16.92 -21,-11.61 -35.27,9.29 -39.96,25.18 -48.09,53.66 -6.01,21.04 -6.71,47.77 -1.51,58.59 9.77,20.28 36.81,69.1 98.39,100.78 -42.81,32.9 -65.34,89.24 -65.34,89.24 0,0 -63.84,60.83 11.27,167.48"
         style="fill:#fabeaf;fill-opacity:1;fill-rule:nonzero;stroke:none"
         id="path40" />
      <path
         d="m 2952.35,2246.77 c -29.04,9.01 -66.65,22.46 -66.65,22.46 0,0 33.6,-31.47 60.35,-37.05 26.74,-5.57 68.09,0 68.09,0 0,0 -32.75,5.58 -61.79,14.59"
         style="fill:#f2a92b;fill-opacity:1;fill-rule:nonzero;stroke:none"
         id="path42" />
      <path
         d="m 2885.7,2318.3 c 0,0 35.93,-5.01 55.65,-11.01 19.72,-6.01 60.32,-24.04 60.32,-24.04 0,0 -39.6,5.26 -64.64,10.14 -25.03,4.88 -51.33,24.91 -51.33,24.91"
         style="fill:#f2a92b;fill-opacity:1;fill-rule:nonzero;stroke:none"
         id="path44" />
      <path
         d="m 2924.82,2794.71 c 40.11,32.68 111.67,30.51 135.11,-24.78 5.67,-13.36 8.81,-44.49 5.88,-57.08 -8.88,-38.09 -12.72,-48.95 -18.68,-78.41 -29.49,18.04 -33.1,18.11 -40.5,30.41 -6.18,10.27 -18.89,28.24 -21.16,40.11 -16.04,-12.72 -47.49,-12.39 -63.89,-9.81 -32.54,5.12 0.95,116.71 3.24,99.56"
         style="fill:#2f212f;fill-opacity:1;fill-rule:nonzero;stroke:none"
         id="path46" />
      <path
         d="m 2993.84,2674.55 c 0,0 13.55,25.53 28.56,9.76 15.02,-15.77 -6,-42.06 -6,-42.06 l -22.56,32.3"
         style="fill:#fabeaf;fill-opacity:1;fill-rule:nonzero;stroke:none"
         id="path48" />
      <path
         d="m 2894.97,2724.92 c 0,0 50.9,-35.52 84.19,-34.54 64.02,1.86 86.82,34.54 86.82,34.54 0,0 18.62,96.98 -67.47,110.8 -118.01,18.94 -103.54,-110.8 -103.54,-110.8"
         style="fill:#f1447f;fill-opacity:1;fill-rule:nonzero;stroke:none"
         id="path50" />
      <path
         d="m 2819.69,2707.96 c 0,0 10.45,-9.9 32.48,0 22.02,9.9 0,14.07 0,14.07 0,0 -21.51,-9.09 -32.48,-14.07"
         style="fill:#ef266e;fill-opacity:1;fill-rule:nonzero;stroke:none"
         id="path52" />
      <path
         d="m 2894.73,2745.28 c 0,0 -66.46,-31.75 -75.04,-37.32 8.01,1.41 16.99,10.87 35.75,-5.09 18.75,-15.96 35.98,-45.91 58.63,-44.53 22.65,1.38 84.44,33.66 84.44,33.66 -8.44,8.4 -33.12,35.98 -58.61,50.99 -27.68,16.3 -45.17,2.29 -45.17,2.29"
         style="fill:#ef3273;fill-opacity:1;fill-rule:nonzero;stroke:none"
         id="path54" />
      <path
         d="m 3008.49,2829.83 c 0,-4.38 -6.68,-7.93 -14.91,-7.93 -8.25,0 -14.93,3.55 -14.93,7.93 0,4.38 6.68,7.94 14.93,7.94 8.23,0 14.91,-3.56 14.91,-7.94"
         style="fill:#ef3273;fill-opacity:1;fill-rule:nonzero;stroke:none"
         id="path56" />
      <path
         d="m 3109.18,2585.72 c 0,0 -37.21,-53.43 -29.72,-115.95 7.49,-62.52 59.81,-129.99 59.81,-129.99 0,0 40.39,10.8 68.25,28.73 27.85,17.93 18.86,40.49 18.86,40.49 0,0 -5.22,107.73 -37.06,139.33 -31.85,31.59 -80.14,37.39 -80.14,37.39"
         style="fill:#f2a92b;fill-opacity:1;fill-rule:nonzero;stroke:none"
         id="path58" />
      <path
         d="m 2620.6,1599.82 v 0 c 1.37,0.85 3.5,1.02 5.49,-0.12 4.27,-2.47 7.74,-9.1 7.74,-14.8 0,-3.35 -1.21,-5.59 -3.06,-6.41 l -379.3,-218.5 -9.82,21.45 378.95,218.38"
         style="fill:#c7afdd;fill-opacity:1;fill-rule:nonzero;stroke:none"
         id="path60" />
      <path
         d="m 2648.89,1599.82 v 0 c -1.37,0.85 -3.5,1.02 -5.49,-0.12 -4.27,-2.47 -7.74,-9.1 -7.74,-14.8 0,-3.35 1.22,-5.59 3.06,-6.41 l 379.31,-218.5 9.81,21.45 -378.95,218.38"
         style="fill:#c7afdd;fill-opacity:1;fill-rule:nonzero;stroke:none"
         id="path62" />
      <path
         d="m 2643.57,2252.71 c -5.83,2.67 -12.78,0.08 -15.43,-5.75 l -412.07,-901.93 c -2.67,-5.82 -0.08,-12.77 5.75,-15.43 5.82,-2.66 12.76,-0.07 15.43,5.75 l 412.06,901.93 c 2.67,5.83 0.08,12.77 -5.74,15.43"
         style="fill:#dbc9e8;fill-opacity:1;fill-rule:nonzero;stroke:none"
         id="path64" />
      <path
         d="m 3053.65,1346.46 -412.35,900.5 c -2.65,5.83 -9.6,8.42 -15.43,5.75 -5.82,-2.66 -8.41,-9.6 -5.75,-15.43 l 412.35,-900.5 c 2.67,-5.83 9.61,-8.41 15.43,-5.75 5.83,2.66 8.41,9.61 5.75,15.43"
         style="fill:#dbc9e8;fill-opacity:1;fill-rule:nonzero;stroke:none"
         id="path66" />
      <path
         d="m 2254.89,1378.96 v 0 c -1.37,0.84 -3.51,1.01 -5.49,-0.13 -4.28,-2.47 -7.75,-9.1 -7.75,-14.8 0,-3.34 1.21,-5.59 3.07,-6.41 l 379.3,-218.49 9.81,21.44 -378.94,218.39"
         style="fill:#c7afdd;fill-opacity:1;fill-rule:nonzero;stroke:none"
         id="path68" />
      <path
         d="m 3014.61,1378.96 v 0 c 1.37,0.84 3.51,1.01 5.49,-0.13 4.28,-2.47 7.74,-9.1 7.74,-14.8 0,-3.34 -1.22,-5.59 -3.06,-6.41 l -379.31,-218.49 -9.81,21.44 378.95,218.39"
         style="fill:#c7afdd;fill-opacity:1;fill-rule:nonzero;stroke:none"
         id="path70" />
      <path
         d="m 2635.66,1093.94 v 0 c -6.4,0 -11.64,5.25 -11.64,11.65 v 1109.05 c 0,6.41 5.24,11.65 11.64,11.65 6.4,0 11.65,-5.24 11.65,-11.65 V 1105.59 c 0,-6.4 -5.25,-11.65 -11.65,-11.65"
         style="fill:#dbc9e8;fill-opacity:1;fill-rule:nonzero;stroke:none"
         id="path72" />
      <path
         d="m 2708.33,2180.93 h -14.1 l -0.58,0.48 c -24.4,18.45 -70.55,22.26 -103.08,8.51 -6.16,-2.6 -11.38,-5.65 -15.65,-8.99 h -13.81 v -24.41 h 0.08 c 0.03,-8.67 4.75,-17.41 14.64,-24.89 24.4,-18.45 70.56,-22.26 103.09,-8.52 19.33,8.18 29.42,20.71 29.37,33.41 h 0.04 v 24.41"
         style="fill:#c7afdd;fill-opacity:1;fill-rule:nonzero;stroke:none"
         id="path74" />
      <path
         d="m 2693.65,2205.23 c -24.4,18.45 -70.55,22.26 -103.08,8.51 -32.54,-13.75 -39.13,-39.85 -14.74,-58.29 24.4,-18.45 70.56,-22.26 103.09,-8.51 32.54,13.74 39.13,39.84 14.73,58.29"
         style="fill:#e8d9ef;fill-opacity:1;fill-rule:nonzero;stroke:none"
         id="path76" />
      <path
         d="m 2679.75,2242.22 h -90.02 v -57.61 h 0.02 c 0.02,-5.3 2.9,-10.65 8.95,-15.22 14.92,-11.28 43.14,-13.61 63.04,-5.21 11.83,5 17.99,12.66 17.96,20.43 h 0.05 v 57.61"
         style="fill:#5d4463;fill-opacity:1;fill-rule:nonzero;stroke:none"
         id="path78" />
      <path
         d="m 2706.76,2288.9 c -29.82,22.55 -86.25,27.21 -126.03,10.4 -39.76,-16.8 -47.83,-48.71 -18,-71.26 29.82,-22.56 86.25,-27.21 126.02,-10.41 39.77,16.81 47.83,48.71 18.01,71.27"
         style="fill:#e8d9ef;fill-opacity:1;fill-rule:nonzero;stroke:none"
         id="path80" />
      <path
         d="M 2724.77,2373.65 H 2544.8 v -115.18 h 179.97 v 115.18"
         style="fill:#e8d9ef;fill-opacity:1;fill-rule:nonzero;stroke:none"
         id="path82" />
      <path
         d="m 2855.16,2537.21 c 0,48.93 -29.76,105.77 -66.46,126.97 -16.78,9.69 -32.08,10.15 -43.77,3.21 l -0.03,0.08 -11.93,-6.44 -3.05,-10.26 c -4.88,-9.51 -7.66,-21.93 -7.66,-36.83 0,-48.93 29.74,-105.78 66.44,-126.96 8.72,-5.04 17.03,-7.53 24.66,-7.87 l 6.19,-1.96 c 0,0 4.61,2.1 10.11,5.08 15.05,8.17 25.5,26.66 25.5,54.98"
         style="fill:#513a57;fill-opacity:1;fill-rule:nonzero;stroke:none"
         id="path84" />
      <path
         d="m 2713.24,2609.43 c 0,-48.93 29.76,-105.78 66.46,-126.97 36.7,-21.19 66.45,1.3 66.45,50.24 0,48.93 -29.75,105.77 -66.45,126.96 -36.7,21.19 -66.46,-1.3 -66.46,-50.23"
         style="fill:#5d4463;fill-opacity:1;fill-rule:nonzero;stroke:none"
         id="path86" />
      <path
         d="m 2815.36,2542.94 c 0,32.5 -19.75,70.27 -44.14,84.34 -11.32,6.54 -21.61,6.75 -29.42,1.92 l -0.02,0.06 -64.47,-35.84 55.81,-123.34 64.45,35.91 -0.03,0.07 c 10.8,4.49 17.82,17.54 17.82,36.88"
         style="fill:#2f212f;fill-opacity:1;fill-rule:nonzero;stroke:none"
         id="path88" />
      <path
         d="m 2491.57,2614.33 49.19,-44.74 25.08,23.31 -49.19,44.74 -25.08,-23.31"
         style="fill:#5d4463;fill-opacity:1;fill-rule:nonzero;stroke:none"
         id="path90" />
      <path
         d="m 2778.15,2580.08 -93.48,53.97 c -7.41,4.28 -14.2,4.59 -19.44,1.68 l -276.65,-157.84 134.62,-260.59 271.7,155.04 c 8.04,2.57 13.34,11.75 13.34,25.61 v 124.64 c 0,22.12 -13.5,47.91 -30.09,57.49"
         style="fill:#382738;fill-opacity:1;fill-rule:nonzero;stroke:none"
         id="path92" />
      <path
         d="m 2407.76,2271.17 c -16.61,9.58 -30.1,35.37 -30.1,57.49 v 124.64 c 0,22.12 13.49,32.33 30.1,22.75 l 93.47,-53.97 c 16.59,-9.58 30.09,-35.37 30.09,-57.49 v -124.65 c 0,-22.12 -13.5,-32.33 -30.09,-22.74 l -93.47,53.97"
         style="fill:#453047;fill-opacity:1;fill-rule:nonzero;stroke:none"
         id="path94" />
      <path
         d="m 2663.69,2537.43 -0.06,0.96 -0.07,0.94 c -1.38,14.61 -18.46,46.29 -18.46,46.29 l -38.31,-4.39 -38.32,4.49 c 0,0 -16.92,-31.52 -18.45,-46.18 l -0.09,-1.22 -0.05,-0.89 0.06,-0.23 c 0.11,-6.62 3.75,-13.29 11.32,-19 18.85,-14.26 54.52,-17.21 79.67,-6.58 14.82,6.26 22.62,15.85 22.71,25.59 l 0.05,0.22"
         style="fill:#2f212f;fill-opacity:1;fill-rule:nonzero;stroke:none"
         id="path96" />
      <path
         d="m 2513.01,2302.34 c 0,45.64 -27.75,98.66 -61.98,118.43 -15.89,9.17 -30.34,9.46 -41.31,2.69 l -0.04,0.08 -90.53,-50.32 78.37,-173.18 90.5,50.42 -0.05,0.09 c 15.17,6.32 25.04,24.64 25.04,51.79"
         style="fill:#2f212f;fill-opacity:1;fill-rule:nonzero;stroke:none"
         id="path98" />
      <path
         d="m 2419.51,2362.51 -93.48,53.97 c -5.14,2.97 -9.74,2.63 -12.98,-0.19 l -0.03,0.05 -81.8,-46.16 115.09,-229.16 82.9,47.86 -0.01,0.02 c 4.83,1.45 8.04,6.85 8.04,15.09 v 124.65 c 0,13 -7.98,28.24 -17.73,33.87"
         style="fill:#382738;fill-opacity:1;fill-rule:nonzero;stroke:none"
         id="path100" />
      <path
         d="m 2346.25,2337.09 -93.47,53.97 c -7.47,4.3 -14.28,4.58 -19.55,1.61 l -0.01,0.01 -10.54,-5.6 2.16,-5.19 c -1.38,-3.8 -2.16,-8.34 -2.16,-13.58 v -124.65 c 0,-22.11 13.49,-47.91 30.1,-57.48 l 93.47,-53.98 1.62,-0.82 4.99,-7.49 12.14,6.28 0.7,0.36 0.19,0.1 v 0.03 c 6.39,3.67 10.45,12.18 10.45,24.29 v 124.65 c 0,22.11 -13.5,47.91 -30.09,57.49"
         style="fill:#2f212f;fill-opacity:1;fill-rule:nonzero;stroke:none"
         id="path102" />
      <path
         d="m 2242.32,2180.62 c -16.6,9.58 -30.09,35.37 -30.09,57.49 v 124.65 c 0,22.12 13.49,32.33 30.09,22.74 l 93.48,-53.97 c 16.59,-9.58 30.09,-35.37 30.09,-57.49 v -124.65 c 0,-22.12 -13.5,-32.32 -30.09,-22.74 l -93.48,53.97"
         style="fill:#453047;fill-opacity:1;fill-rule:nonzero;stroke:none"
         id="path104" />
      <path
         d="m 2249.42,2244.05 v 120.88 l -7.1,4.1 c -9.75,5.63 -17.73,-0.4 -17.73,-13.41 v -124.64 c 0,-13 7.98,-28.25 17.73,-33.87 l 93.48,-53.98 c 9.75,-5.63 17.73,0.4 17.73,13.4 v 3.77 l -86.39,49.87 c -9.75,5.63 -17.72,20.87 -17.72,33.88"
         style="fill:#382738;fill-opacity:1;fill-rule:nonzero;stroke:none"
         id="path106" />
      <path
         d="m 2269.05,2247.82 v 100.73 c 0,1.75 0.22,3.29 0.55,4.72 l -20.18,11.66 v -120.88 c 0,-13.01 7.97,-28.25 17.72,-33.88 l 86.39,-49.87 v 19.21 l -69.84,40.32 c -8.08,4.67 -14.64,17.21 -14.64,27.99"
         style="fill:#2f212f;fill-opacity:1;fill-rule:nonzero;stroke:none"
         id="path108" />
      <path
         d="m 2335.8,2315.05 -66.2,38.22 c -0.33,-1.43 -0.55,-2.97 -0.55,-4.72 v -100.73 c 0,-10.78 6.56,-23.32 14.64,-27.99 l 69.84,-40.32 v 101.67 c 0,13 -7.98,28.24 -17.73,33.87"
         style="fill:#6757b1;fill-opacity:1;fill-rule:nonzero;stroke:none"
         id="path110" />
      <path
         d="m 2576.1,2297.25 c -9.73,0 -19.59,7.59 -19.59,22.09 v 37.84 c 0,11.79 6.81,24.27 16.21,29.69 l 90.51,52.26 c 3.43,1.98 7.02,2.98 10.66,2.98 9.74,0 19.6,-7.59 19.6,-22.09 v -37.84 c 0,-11.78 -6.82,-24.27 -16.2,-29.68 l -90.52,-52.27 c -3.44,-1.98 -7.02,-2.98 -10.67,-2.98"
         style="fill:#533e57;fill-opacity:1;fill-rule:nonzero;stroke:none"
         id="path112" />
      <path
         d="m 2670.26,2364.68 -90.52,-52.27 c -5.06,-2.91 -9.16,0.18 -9.16,6.93 v 37.84 c 0,6.74 4.1,14.58 9.16,17.5 l 90.52,52.27 c 5.05,2.92 9.16,-0.18 9.16,-6.93 v -37.84 c 0,-6.74 -4.11,-14.58 -9.16,-17.5"
         style="fill:#6757b1;fill-opacity:1;fill-rule:nonzero;stroke:none"
         id="path114" />
      <path
         d="m 2734.02,2400.15 -0.13,0.08 -0.48,0.29 -0.02,-0.03 c -2.46,1.52 -5.69,1.5 -9.27,-0.56 -7.71,-4.45 -13.96,-16.4 -13.96,-26.68 0,-6.04 2.19,-10.08 5.53,-11.56 l -0.02,-0.04 12.97,-7.61 17.69,38.67 -12.31,7.44"
         style="fill:#453047;fill-opacity:1;fill-rule:nonzero;stroke:none"
         id="path116" />
      <path
         d="m 2752.05,2381.02 c 0,-10.29 -6.25,-22.23 -13.96,-26.68 -7.72,-4.45 -13.97,0.27 -13.97,10.55 0,10.29 6.25,22.23 13.97,26.68 7.71,4.46 13.96,-0.27 13.96,-10.55"
         style="fill:#533e57;fill-opacity:1;fill-rule:nonzero;stroke:none"
         id="path118" />
      <path
         d="m 2750.36,2376.98 c 0,-6.82 -4.14,-14.74 -9.25,-17.69 -5.11,-2.95 -9.26,0.19 -9.26,7 0,6.81 4.15,14.73 9.26,17.68 5.11,2.96 9.25,-0.18 9.25,-6.99"
         style="fill:#6757b1;fill-opacity:1;fill-rule:nonzero;stroke:none"
         id="path120" />
      <path
         d="m 2779.24,2424.61 -0.13,0.07 -0.47,0.29 -0.02,-0.03 c -2.47,1.52 -5.7,1.5 -9.27,-0.56 -7.72,-4.45 -13.97,-16.4 -13.97,-26.68 0,-6.04 2.19,-10.08 5.52,-11.56 l -0.02,-0.04 12.98,-7.61 17.7,38.67 -12.32,7.45"
         style="fill:#453047;fill-opacity:1;fill-rule:nonzero;stroke:none"
         id="path122" />
      <path
         d="m 2797.28,2405.47 c 0,-10.28 -6.25,-22.23 -13.97,-26.68 -7.71,-4.46 -13.96,0.27 -13.96,10.55 0,10.29 6.25,22.23 13.96,26.69 7.72,4.45 13.97,-0.28 13.97,-10.56"
         style="fill:#533e57;fill-opacity:1;fill-rule:nonzero;stroke:none"
         id="path124" />
      <path
         d="m 2795.59,2401.43 c 0,-6.82 -4.15,-14.73 -9.26,-17.69 -5.12,-2.95 -9.26,0.18 -9.26,7 0,6.81 4.14,14.74 9.26,17.69 5.11,2.95 9.26,-0.18 9.26,-7"
         style="fill:#6757b1;fill-opacity:1;fill-rule:nonzero;stroke:none"
         id="path126" />
      <path
         d="m 2626.58,2650.52 -164.86,-93.78 164.86,93.78 c 3.96,2.43 10.12,2.94 15.84,-0.37 12.35,-7.13 22.37,-26.25 22.37,-42.72 0,-9.65 -3.51,-16.13 -8.85,-18.5 l -165.8,-94.43 -20.77,-12.19 -28.34,61.91 185.55,106.3"
         style="fill:#453047;fill-opacity:1;fill-rule:nonzero;stroke:none"
         id="path128" />
      <path
         d="m 2431.87,2525.51 c 0,-16.46 10.02,-35.59 22.36,-42.72 12.35,-7.13 22.36,0.44 22.36,16.9 0,16.46 -10.01,35.6 -22.36,42.72 -12.34,7.13 -22.36,-0.43 -22.36,-16.9"
         style="fill:#533e57;fill-opacity:1;fill-rule:nonzero;stroke:none"
         id="path130" />
      <path
         d="m 2434.58,2519.04 c 0,-10.91 6.63,-23.59 14.82,-28.31 8.18,-4.73 14.82,0.28 14.82,11.2 0,10.91 -6.64,23.59 -14.82,28.31 -8.19,4.73 -14.82,-0.29 -14.82,-11.2"
         style="fill:#c7afdd;fill-opacity:1;fill-rule:nonzero;stroke:none"
         id="path132" />
      <path
         d="m 2681.73,2324.19 -104.23,-60.18 c -3.81,-2.2 -6.92,0.15 -6.92,5.23 0,5.08 3.11,11.03 6.92,13.23 l 104.23,60.17 c 3.81,2.2 6.92,-0.15 6.92,-5.23 0,-5.08 -3.11,-11.03 -6.92,-13.22"
         style="fill:#ffffff;fill-opacity:1;fill-rule:nonzero;stroke:none"
         id="path134" />
      <path
         d="m 2489.72,2699.4 c -46.08,-26.21 -87.53,-49.8 -87.53,-49.8 l 87.53,49.79 v 0.01"
         style="fill:#453047;fill-opacity:1;fill-rule:nonzero;stroke:none"
         id="path136" />
      <path
         d="m 2519.15,2703.55 c -7.29,4.21 -15.14,3.56 -20.18,0.46 l -9.25,-5.3 v 0.19 l -113.9,-65.25 34.08,-74.46 v -5.66 l 126.47,72.03 c 6.81,3.01 11.26,11.26 11.26,23.57 0,20.97 -12.75,45.33 -28.48,54.42"
         style="fill:#453047;fill-opacity:1;fill-rule:nonzero;stroke:none"
         id="path138" />
      <path
         d="m 2364.16,2609.82 c 0,-20.98 12.76,-45.34 28.48,-54.42 15.73,-9.08 28.49,0.55 28.49,21.53 0,20.97 -12.76,45.34 -28.49,54.42 -15.72,9.08 -28.48,-0.56 -28.48,-21.53"
         style="fill:#5d4463;fill-opacity:1;fill-rule:nonzero;stroke:none"
         id="path140" />
      <path
         d="m 2386.49,2615.85 c -5.13,2.96 -9.77,2.89 -13.18,0.42 l -0.01,0.02 -116.53,-66.52 31.98,-47.33 107.82,61.2 c 5.28,1.42 8.79,7.19 8.79,16.14 0,13.9 -8.44,30.05 -18.87,36.07"
         style="fill:#c7afdd;fill-opacity:1;fill-rule:nonzero;stroke:none"
         id="path142" />
      <path
         d="m 2302.14,2526.65 c 0,-15.78 -12.79,-28.58 -28.58,-28.58 -15.78,0 -28.58,12.8 -28.58,28.58 0,15.78 12.8,28.58 28.58,28.58 15.79,0 28.58,-12.8 28.58,-28.58"
         style="fill:#c7afdd;fill-opacity:1;fill-rule:nonzero;stroke:none"
         id="path144" />
      <path
         d="m 2689.03,2500.82 -128.14,73.98 c -4.17,2.4 -7.95,2.53 -10.95,0.99 l -0.08,0.09 -8.95,-4.6 3.29,-3.84 c -0.42,-1.75 -0.71,-3.64 -0.71,-5.8 v -53.56 c 0,-12.76 7.83,-27.72 17.4,-33.25 l 124.6,-71.94 6.27,-7.31 9.38,4.87 -0.02,0.01 c 3.26,2.34 5.31,7.04 5.31,13.55 v 53.56 c 0,12.76 -7.83,27.72 -17.4,33.25"
         style="fill:#513a57;fill-opacity:1;fill-rule:nonzero;stroke:none"
         id="path146" />
      <path
         d="m 2680.6,2496.55 -128.14,73.98 c -9.58,5.52 -17.4,-0.4 -17.4,-13.16 v -53.57 c 0,-12.75 7.82,-27.72 17.4,-33.24 l 128.14,-73.98 c 9.57,-5.53 17.4,0.39 17.4,13.15 v 53.57 c 0,12.76 -7.83,27.72 -17.4,33.25"
         style="fill:#5d4463;fill-opacity:1;fill-rule:nonzero;stroke:none"
         id="path148" />
      <path
         d="m 2559.95,2477.55 48.59,-28.05 c 4.19,-2.42 7.61,0.17 7.61,5.75 0,5.59 -3.42,12.13 -7.61,14.55 l -48.59,28.05 c -4.19,2.42 -7.6,-0.17 -7.6,-5.76 0,-5.58 3.41,-12.13 7.6,-14.54"
         style="fill:#ffffff;fill-opacity:1;fill-rule:nonzero;stroke:none"
         id="path150" />
      <path
         d="m 2638.29,2512.8 c -1.95,1.13 -3.55,-0.08 -3.55,-2.69 v -36.5 -5.28 -34.81 c 0,-2.6 1.6,-5.66 3.55,-6.79 1.96,-1.12 3.56,0.09 3.56,2.69 v 38.91 5.28 32.4 c 0,2.61 -1.6,5.66 -3.56,6.79"
         style="fill:#513a57;fill-opacity:1;fill-rule:nonzero;stroke:none"
         id="path152" />
      <path
         d="m 2657.05,2502.7 c -1.95,1.12 -3.55,-0.08 -3.55,-2.69 v -36.5 -5.28 -34.8 c 0,-2.61 1.6,-5.67 3.55,-6.8 1.96,-1.13 3.55,0.08 3.55,2.69 v 38.91 5.28 32.4 c 0,2.61 -1.59,5.66 -3.55,6.79"
         style="fill:#513a57;fill-opacity:1;fill-rule:nonzero;stroke:none"
         id="path154" />
      <path
         d="m 2675.22,2491.86 c -1.96,1.12 -3.56,-0.08 -3.56,-2.69 v -36.51 -5.27 -34.81 c 0,-2.6 1.6,-5.66 3.56,-6.79 1.95,-1.13 3.55,0.08 3.55,2.69 v 38.91 5.27 32.41 c 0,2.6 -1.6,5.66 -3.55,6.79"
         style="fill:#513a57;fill-opacity:1;fill-rule:nonzero;stroke:none"
         id="path156" />
      <path
         d="m 3804.02,1126.53 -31.08,17.94 -275.32,515.27 31.6,-18.24 274.8,-514.97"
         style="fill:#f8a034;fill-opacity:1;fill-rule:nonzero;stroke:none"
         id="path158" />
      <path
         d="m 3834.31,1143.84 -30.29,-17.31 -274.8,514.97 30.28,17.32 274.81,-514.98"
         style="fill:#f57c27;fill-opacity:1;fill-rule:nonzero;stroke:none"
         id="path160" />
      <path
         d="m 3546.09,1275.45 -31.97,18.48 302.38,183.24 31.59,-18.25 -302,-183.47"
         style="fill:#f68d31;fill-opacity:1;fill-rule:nonzero;stroke:none"
         id="path162" />
      <path
         d="m 3551.45,979.449 -31.07,17.942 -275.33,515.269 31.6,-18.24 274.8,-514.971"
         style="fill:#f8a034;fill-opacity:1;fill-rule:nonzero;stroke:none"
         id="path164" />
      <path
         d="m 3581.74,996.762 -30.29,-17.313 -274.8,514.971 30.29,17.32 274.8,-514.978"
         style="fill:#f57c27;fill-opacity:1;fill-rule:nonzero;stroke:none"
         id="path166" />
      <path
         d="m 3293.52,1128.37 -31.96,18.48 302.37,183.24 31.59,-18.25 -302,-183.47"
         style="fill:#f68d31;fill-opacity:1;fill-rule:nonzero;stroke:none"
         id="path168" />
      <path
         d="m 3580.26,1666.37 -1.91,1.09 -316.12,-182.52 c 0,0 53.37,-49.64 142.25,-102.06 100.39,-59.19 145.02,-62.27 145.02,-62.27 l 310.04,184.08 c -15.13,2.86 -59.53,14.53 -138.93,61.35 -79.45,46.84 -130.39,91.37 -140.35,100.33"
         style="fill:#453047;fill-opacity:1;fill-rule:nonzero;stroke:none"
         id="path170" />
      <path
         d="m 3262.23,1515.47 -31.6,18.24 316.12,182.52 31.6,-18.24 -316.12,-182.52"
         style="fill:#fbc154;fill-opacity:1;fill-rule:nonzero;stroke:none"
         id="path172" />
      <path
         d="m 3230.63,1533.71 v -30.52 l 31.6,-18.25 v 30.53 l -31.6,18.24"
         style="fill:#f8a034;fill-opacity:1;fill-rule:nonzero;stroke:none"
         id="path174" />
      <path
         d="m 3578.35,1667.46 v 30.53 l -316.12,-182.52 v -30.53 l 316.12,182.52"
         style="fill:#f68d31;fill-opacity:1;fill-rule:nonzero;stroke:none"
         id="path176" />
      <path
         d="m 3581.1,1332.9 -31.6,18.23 316.12,182.52 31.6,-18.24 -316.12,-182.51"
         style="fill:#fbc154;fill-opacity:1;fill-rule:nonzero;stroke:none"
         id="path178" />
      <path
         d="m 3549.5,1351.13 v -30.52 l 31.6,-18.24 v 30.53 l -31.6,18.23"
         style="fill:#f8a034;fill-opacity:1;fill-rule:nonzero;stroke:none"
         id="path180" />
      <path
         d="m 3897.22,1484.88 v 30.53 L 3581.1,1332.9 v -30.53 l 316.12,182.51"
         style="fill:#f68d31;fill-opacity:1;fill-rule:nonzero;stroke:none"
         id="path182" />
      <path
         d="m 3578.35,1698 -31.25,-18.04 v 371.99 l 31.25,18.04 V 1698"
         style="fill:#f68d31;fill-opacity:1;fill-rule:nonzero;stroke:none"
         id="path184" />
      <path
         d="m 3515.85,1698 31.25,-18.04 v 371.99 l -31.25,18.04 V 1698"
         style="fill:#f8a034;fill-opacity:1;fill-rule:nonzero;stroke:none"
         id="path186" />
      <path
         d="m 3578.35,2069.99 -31.25,18.01 -31.25,-18.01 31.25,-18.04 31.25,18.04"
         style="fill:#fbc154;fill-opacity:1;fill-rule:nonzero;stroke:none"
         id="path188" />
      <path
         d="m 3897.22,1515.19 -31.25,-18.04 v 371.98 l 31.25,18.04 v -371.98"
         style="fill:#f68d31;fill-opacity:1;fill-rule:nonzero;stroke:none"
         id="path190" />
      <path
         d="m 3834.72,1515.19 31.25,-18.04 v 371.98 l -31.25,18.04 v -371.98"
         style="fill:#f8a034;fill-opacity:1;fill-rule:nonzero;stroke:none"
         id="path192" />
      <path
         d="m 3897.22,1887.17 -31.25,18.02 -31.25,-18.02 31.25,-18.04 31.25,18.04"
         style="fill:#fbc154;fill-opacity:1;fill-rule:nonzero;stroke:none"
         id="path194" />
      <path
         d="m 3547.1,2051.95 v -142.38 c 0,0 85.91,-33.62 159.13,-75.57 35.96,-20.59 128.49,-89.21 128.49,-89.21 v 142.38 c 0,0 -92.53,68.61 -128.49,89.21 -72.09,41.3 -159.13,75.57 -159.13,75.57"
         style="fill:#453047;fill-opacity:1;fill-rule:nonzero;stroke:none"
         id="path196" />
      <path
         d="m 3481.86,1006.98 c 0,0 9.86,-36.621 8.63,-57.808 -1.24,-21.18 -6.29,-26.242 -12.69,-33.383 -6.41,-7.148 -13.93,-4.059 -13.93,-4.059 0,0 -2.95,-43.71 -23.66,-61.359 -20.72,-17.66 -58.28,-19.34 -75.53,-12.922 -17.25,6.403 -5.91,37.692 10.98,68.371 16.88,30.668 38.41,63.68 43.8,91.399 41.3,5.701 62.4,9.761 62.4,9.761"
         style="fill:#2f212f;fill-opacity:1;fill-rule:nonzero;stroke:none"
         id="path198" />
      <path
         d="m 3210,1465.4 c 9.6,39.72 15.84,51.74 19.58,68.19 3.29,14.53 3.36,30.38 22.23,39.14 55.56,25.79 150,83.41 185.82,94.73 78.22,24.7 144.11,36.46 144.11,36.46 l 39.22,-70.8 c 0,0 -23.15,-81.94 -81.55,-106.36 -40.09,-16.76 -139.87,-56.41 -191.64,-79.62 0.27,-19.95 -3.46,-59.35 -8.67,-85.63 -9.28,-46.89 -46.82,-228.46 -53.08,-256.33 -15.35,-31.28 -75.8,-21.03 -86.59,12.71 8.75,35.74 -5.16,282.46 10.57,347.51"
         style="fill:#2f212f;fill-opacity:1;fill-rule:nonzero;stroke:none"
         id="path200" />
      <path
         d="m 3746.56,1589.49 c -7.63,25.08 -11.66,62.98 -38.91,74.73 -13.11,5.66 -30.86,4.62 -44.68,5.88 -24.74,2.27 -49.5,4.53 -74.25,6.79 -9.44,0.86 -18.25,-18.07 -18.25,-18.07 -22.01,-31.5 -31.53,-58.01 -41.25,-95.66 -47.53,-39.15 -81.08,-87.76 -119.02,-135.71 -13.01,-16.43 -13.22,-28.61 -17.2,-46.2 -7.93,-35.11 -5.38,-84.48 -2.18,-123.6 5.2,-63.58 7.33,-201.8 19.38,-264.509 35.25,-35.95 73.15,-16.012 83.16,-1.129 4.26,108.198 34.2,192.868 29.58,283.438 -0.66,12.96 -7.68,62.76 -8.82,75.68 17.36,5.01 122.53,60.11 152.44,83 26.22,20.07 49.72,43.65 69.03,70.47 21.03,29.23 21.25,51.12 10.97,84.89"
         style="fill:#382738;fill-opacity:1;fill-rule:nonzero;stroke:none"
         id="path202" />
      <path
         d="m 3281.9,1116.19 c 0,0 1.96,-16.47 7.12,-33.67 5.14,-17.22 -1.19,-41.22 -1.19,-41.22 0,0 -3.72,-10.58 -19.66,-13.71 -14.87,-2.92 -26.88,0.64 -26.88,0.64 0,0 -14.61,-17.66 -33.7,-31.16 -19.09,-13.519 -61.21,-24.011 -72.67,-22.261 -18.48,2.812 -28.38,17.23 -26.96,26.531 1.42,9.28 23.2,35.03 41.06,46.17 11.62,7.25 38,31.74 45.91,40.25 13.11,14.1 22.78,29.68 22.78,29.68 l 64.19,-1.25"
         style="fill:#2f212f;fill-opacity:1;fill-rule:nonzero;stroke:none"
         id="path204" />
      <path
         d="m 3588.1,2076.19 c 0,0 -30.27,26.98 -64.62,-28.07 -14.98,-24 -46.14,-98.02 -49.22,-114 -4.02,-20.92 -12.46,-42.61 -11.6,-61 -13.65,4.27 -18.67,-9.38 -20.59,-17.91 -37.62,19 -129.56,43.16 -129.56,43.16 l -16.46,-48.43 c 0,0 36.93,-29.41 74.47,-56.16 23.61,-16.83 49.39,-30.08 71.55,-33.27 13.06,-1.88 19.73,-2.55 32.53,4.27 19.09,10.18 83.65,59.41 91.25,93.54 1.89,8.46 -1.44,20.74 -7.48,34.43 15.51,80.07 29.73,183.44 29.73,183.44"
         style="fill:#564daa;fill-opacity:1;fill-rule:nonzero;stroke:none"
         id="path206" />
      <path
         d="m 3643.04,2042.72 c -13.56,2.39 -66.8,12.2 -71.55,9.01 -34.17,-22.95 -66.18,-99.38 -65.2,-148.17 0.4,-20.18 5.91,-121.58 21.94,-151.84 -12.43,-11.45 -18.06,-26.27 -15.94,-36.93 -17.56,-2.31 -58.91,-10.41 -7.23,-52.18 27.56,-22.27 87.97,-71.23 129.5,-79.77 60.08,-12.35 70.33,4.4 107.28,34.07 5.79,4.65 1.51,33.82 -12.78,40.48 25.99,43.61 33.65,159.44 38.66,197.35 7.54,57.05 8.84,88.1 -28.55,125.51 -16.38,16.4 -66.49,56.88 -96.13,62.47"
         style="fill:#6757b1;fill-opacity:1;fill-rule:nonzero;stroke:none"
         id="path208" />
      <path
         d="m 3682.18,2098.78 c 0,0 -57.85,-21.56 -80.29,-41.17 -22.44,-19.61 -82.05,-75.57 -30.81,-106.58 40.9,-24.75 100.09,33.22 119.24,60.12 -12.52,12.69 -8.14,87.63 -8.14,87.63"
         style="fill:#f9aa9a;fill-opacity:1;fill-rule:nonzero;stroke:none"
         id="path210" />
      <path
         d="m 3660.36,1636.69 c 0,0 -44.26,15.94 -58.48,21.56 -11.39,4.5 -62.47,22.76 -62.47,22.76 0,0 40.13,-28.07 63.69,-36.7 23.55,-8.61 57.26,-7.62 57.26,-7.62"
         style="fill:#564daa;fill-opacity:1;fill-rule:nonzero;stroke:none"
         id="path212" />
      <path
         d="m 3549.73,1709.05 c 0,0 30.68,-5.67 54.14,-7.75 23.45,-2.08 63.01,-10.64 63.01,-10.64 0,0 -43.33,-7.43 -68.02,-2.36 -24.7,5.08 -49.13,20.75 -49.13,20.75"
         style="fill:#564daa;fill-opacity:1;fill-rule:nonzero;stroke:none"
         id="path214" />
      <path
         d="m 3581.74,2047.26 c 0,0 -28.72,-33.62 -42.33,-46.68 -13.63,-13.07 -9.62,-45.56 -16.47,-52.38 7.37,-8.3 28.83,4.28 31.4,-3.18 6.55,-19.01 28.32,-18.43 28.32,-18.43 0,0 -13.01,39.88 0.89,74.25 13.89,34.37 -1.81,46.42 -1.81,46.42"
         style="fill:#564daa;fill-opacity:1;fill-rule:nonzero;stroke:none"
         id="path216" />
      <path
         d="m 3551.9,2139.78 c 5.51,21.93 16.08,48.75 36.37,61.01 20.06,12.12 49.27,7.66 70.79,1.6 33.36,-9.39 49.42,-51.77 34.44,-93.83 -13.83,-38.85 -53.33,-94.92 -99.65,-94.02 -23.58,0.46 -37.65,21.14 -43.52,45.12 -6.94,28.41 -2.98,62.02 1.57,80.12"
         style="fill:#fabeaf;fill-opacity:1;fill-rule:nonzero;stroke:none"
         id="path218" />
      <path
         d="m 3690.91,2175.44 c -7.59,22.03 -107.68,74.53 -129.96,-8.91 2.17,-4.17 6.35,-13.94 18.29,-20.06 21.7,-11.13 50.74,-14.65 74.71,-8.53 0.51,-14.53 16.24,-28.87 30.34,-29.79 -6.56,-15.22 -11.1,-39.4 -2.49,-55.79 4.51,18.16 31.86,29.18 35.33,47.23 1.43,7.4 -1.01,15.24 -5.68,21.18 18.1,14.3 -13.36,33.82 -20.54,54.67"
         style="fill:#2f212f;fill-opacity:1;fill-rule:nonzero;stroke:none"
         id="path220" />
      <path
         d="m 3663.83,2111.37 c 0,0 11.85,15.9 23.77,3.35 11.92,-12.55 -19.16,-36.7 -19.16,-36.7 l -4.61,33.35"
         style="fill:#fabeaf;fill-opacity:1;fill-rule:nonzero;stroke:none"
         id="path222" />
      <path
         d="m 3550.33,2059.66 c 0,0 5.93,1.97 21.72,-3.01 15.8,-4.99 31.18,-20.15 44.6,-17.81 13.29,2.32 21.16,10.04 24.63,18.82 4.47,11.3 8.56,28.33 11.92,46.47 5.66,-4 5.61,-8.45 5.29,-14.13 -1.06,-18.37 -5.73,-40.7 -10.53,-51.22 -7.29,-16.03 -32.07,-35.18 -64.41,-37.94 -28.42,-2.43 -32.9,12.59 -34.65,30.7 -1.52,15.71 0.18,20.05 1.43,28.12"
         style="fill:#2f212f;fill-opacity:1;fill-rule:nonzero;stroke:none"
         id="path224" />
      <path
         d="m 3557.92,2043.13 c 0,0 8.51,-0.49 11.98,4.13 4.85,-9.55 15.02,-12.09 19.12,-15.02 -4.81,-3.57 -11.2,-7.39 -21.41,-3.19 -8.86,3.65 -9.69,14.08 -9.69,14.08"
         style="fill:#fabeaf;fill-opacity:1;fill-rule:nonzero;stroke:none"
         id="path226" />
      <path
         d="m 3681.8,2052.36 v -18.29 c 0,0 -22.09,-31.27 -38.15,-43.22 -16.06,-11.94 -44.66,-21.6 -55.55,-25.59 -10.89,-3.99 -18.65,-17.63 -18.65,-17.63 v -26.61 c 0,0 -3.91,-14.34 -6.72,-26.29 -2.83,-11.94 -1.84,-22.17 -1.84,-22.17 l 8.56,-3.43 c 0,0 4.11,31.29 6.95,39.26 2.85,7.95 4.55,12.63 4.55,12.63 0,0 8.53,6.13 11.94,11.25 3.42,5.12 10.56,2.84 10.56,-11.25 0,-9.56 10.49,-22.65 10.49,-22.65 0,0 3.98,24.8 22.75,35.04 18.76,10.23 41.31,29 53.63,43.22 12.32,14.22 13.62,27.71 13.63,33.2 0.02,8.89 -7.76,43.18 -22.15,42.53"
         style="fill:#564daa;fill-opacity:1;fill-rule:nonzero;stroke:none"
         id="path228" />
      <path
         d="m 3551.9,2139.78 c 0,0 48.63,-33.94 80.44,-33.01 61.16,1.79 82.96,33.01 82.96,33.01 0,0 17.79,92.66 -64.48,105.87 -112.75,18.1 -98.92,-105.87 -98.92,-105.87"
         style="fill:#f1447f;fill-opacity:1;fill-rule:nonzero;stroke:none"
         id="path230" />
      <path
         d="m 3479.96,2123.57 c 0,0 9.99,-9.46 31.04,0 21.04,9.47 0,13.45 0,13.45 0,0 -20.55,-8.69 -31.04,-13.45"
         style="fill:#ef266e;fill-opacity:1;fill-rule:nonzero;stroke:none"
         id="path232" />
      <path
         d="m 3551.66,2159.23 c 0,0 -63.48,-30.33 -71.7,-35.66 7.66,1.35 16.24,10.39 34.16,-4.86 17.92,-15.25 34.39,-43.87 56.03,-42.55 21.64,1.32 80.67,32.16 80.67,32.16 -8.05,8.03 -31.64,34.39 -55.98,48.72 -26.47,15.57 -43.18,2.19 -43.18,2.19"
         style="fill:#ef3273;fill-opacity:1;fill-rule:nonzero;stroke:none"
         id="path234" />
      <path
         d="m 3660.36,2240.02 c 0,-4.19 -6.38,-7.58 -14.25,-7.58 -7.88,0 -14.25,3.39 -14.25,7.58 0,4.19 6.37,7.58 14.25,7.58 7.87,0 14.25,-3.39 14.25,-7.58"
         style="fill:#ef3273;fill-opacity:1;fill-rule:nonzero;stroke:none"
         id="path236" />
      <path
         d="m 3723.36,1986.92 c 0,0 -51.92,-60.33 -51.92,-99.75 0,-33.14 32.71,-86.27 32.71,-86.27 l 69.1,-84.67 c 0,0 -38.56,-68.99 -55.71,-85.44 -17.16,-16.44 -74.87,-64.22 -74.45,-71.04 0.42,-6.83 13.75,-33.96 20.74,-44.28 6.98,-10.32 113.35,53.38 151.16,85.23 37.82,31.85 79.19,103.92 65.09,144.09 -14.11,40.18 -92.79,243.89 -156.72,242.13"
         style="fill:#564daa;fill-opacity:1;fill-rule:nonzero;stroke:none"
         id="path238" />
      <path
         d="m 3328.18,1890.62 c 0,0 -7.78,43.11 -16.05,51.21 -8.27,8.11 -21.33,0 -21.33,0 0,0 -23.35,17.69 -43.82,6.64 -20.47,-11.04 -18.01,-34.57 -21.59,-46.65 -3.58,-12.08 29.55,-31.8 37.51,-36.77 7.97,-4.97 39.06,-20.41 39.06,-20.41 0,0 23.94,24.02 26.22,45.98"
         style="fill:#fabeaf;fill-opacity:1;fill-rule:nonzero;stroke:none"
         id="path240" />
      <path
         d="m 3251.02,1885.6 c -1.17,0 -2.34,0.19 -3.5,0.58 -12.44,4.22 -20.42,35.72 -24.07,54.12 l 13.39,2.66 c 3.77,-18.98 10.05,-37.7 14.18,-42.85 11.65,10.58 24.91,26.79 29.95,35.32 2.24,3.82 0.61,23.85 -3.48,42.87 l 13.36,2.87 c 2.06,-9.61 8.3,-41.8 1.88,-52.69 -5.88,-9.96 -20.98,-28.35 -34.08,-39.85 -2.26,-2 -4.93,-3.03 -7.63,-3.03"
         style="fill:#453047;fill-opacity:1;fill-rule:nonzero;stroke:none"
         id="path242" />
      <path
         d="m 3335.2,2055.93 c -11.81,20.45 -31.46,31.21 -43.88,24.03 l -195.07,-54.21 90.82,-159.3 147,139.46 c 12.43,7.18 12.93,29.57 1.13,50.02"
         style="fill:#2f212f;fill-opacity:1;fill-rule:nonzero;stroke:none"
         id="path244" />
      <path
         d="m 3184.69,1971.07 c 25.48,-44.15 24.39,-92.49 -2.43,-107.98 -26.83,-15.49 -69.24,7.74 -94.72,51.89 -25.49,44.14 -24.4,92.48 2.42,107.97 26.83,15.48 69.24,-7.74 94.73,-51.88"
         style="fill:#382738;fill-opacity:1;fill-rule:nonzero;stroke:none"
         id="path246" />
      <path
         d="m 3134.46,1927.66 c -28.84,46.86 -19.45,77.59 -10.13,92.79 -11.49,3.44 -22.51,2.99 -31.61,-2.26 -25.23,-14.57 -26.25,-60.03 -2.29,-101.54 23.97,-41.52 63.85,-63.36 89.07,-48.79 8.11,4.68 13.68,12.56 16.76,22.46 -22.51,2.67 -46.32,12.18 -61.8,37.34"
         style="fill:#453047;fill-opacity:1;fill-rule:nonzero;stroke:none"
         id="path248" />
      <path
         d="m 3181.79,1969.4 c -15.31,26.53 -37.12,44.96 -57.46,51.05 -9.32,-15.2 -18.71,-45.93 10.13,-92.79 15.48,-25.16 39.29,-34.67 61.8,-37.34 6.53,20.92 1.8,50.89 -14.47,79.08"
         style="fill:#453047;fill-opacity:1;fill-rule:nonzero;stroke:none"
         id="path250" />
      <path
         d="m 3196.26,1890.32 v 0 c -22.51,2.67 -46.32,12.18 -61.8,37.34 -14.59,23.7 -19.39,43.28 -19.38,58.81 0.02,15.17 4.64,26.47 9.25,33.98 20.34,-6.09 42.15,-24.52 57.46,-51.05 11.57,-20.04 17.3,-40.98 17.3,-58.93 0,-7.3 -0.94,-14.1 -2.83,-20.15"
         style="fill:#3c2a3d;fill-opacity:1;fill-rule:nonzero;stroke:none"
         id="path252" />
      <path
         d="m 3299.99,1949.33 c -9.67,1.71 -26.73,-9.1 -32.41,-11.94 -5.69,-2.85 -8.08,-13.65 -8.08,-13.65 0,0 8.81,-5.4 19.46,-2.72 0,-3.98 5.76,-23.08 8.11,-30.7 0.61,-1.95 0.98,-3.15 0.98,-3.15 l 26.16,51.83 c 0,0 -4.55,8.63 -14.22,10.33"
         style="fill:#fabeaf;fill-opacity:1;fill-rule:nonzero;stroke:none"
         id="path254" />
      <path
         d="m 3643.09,1559.75 c 0,0 -47.57,-14.22 -103.68,-15.92 -39.61,-1.21 -64.32,-42.69 -59.45,-58.89 4.88,-16.19 49.64,13.05 68.33,12.21 18.7,-0.84 65.69,-9.76 83.57,-3.12 24.46,9.09 31.97,21.44 31.97,21.44 0,0 -1.64,18.23 -20.74,44.28"
         style="fill:#fabeaf;fill-opacity:1;fill-rule:nonzero;stroke:none"
         id="path256" />
      <path
         d="m 211.684,1387.44 c -5.153,21.07 -11.153,44.16 -30.379,57.81 -10.149,7.2 -104.2659,74.63 -109.7581,68.38 -9.4492,-74.37 4.1133,-81.58 31.5311,-153.2 5.676,-14.82 30.949,-61.58 58.945,-153.35 4.43,-14.51 28.344,-25.39 49.661,19.41 9.539,20.06 7.523,130.17 0,160.95"
         style="fill:#c0addd;fill-opacity:1;fill-rule:nonzero;stroke:none"
         id="path258" />
      <path
         d="m 1050.12,768.121 c -10.64,14.098 -24.77,24.848 -34.08,40.07 -9.39,15.36 -14.49,32.84 -19.884,49.868 -6.261,19.761 -15.054,58.601 -35.683,68.621 -9.93,4.82 -80.559,-53.801 -85.524,-69.649 -7.129,-22.769 30.895,-48.832 44.637,-62.051 13.18,-12.679 26.5,-25.269 38.531,-39.058 11.242,-12.883 20.352,-28.07 33.012,-39.672 15.511,-14.219 40.811,-23.238 59.421,-9.059 20.12,15.321 12.51,43.797 -0.43,60.93"
         style="fill:#c0addd;fill-opacity:1;fill-rule:nonzero;stroke:none"
         id="path260" />
      <path
         d="m 974.762,911.031 c -25.844,62.18 -79.27,119.709 -127.364,165.809 -51.828,49.7 -97.253,128.98 -142.695,184.94 -44.238,54.5 -71.687,82.42 -116.937,135.93 l -1.606,1.88 c -1.34,1.55 -228.879,121.27 -232.148,122.08 -1.782,0.44 -101.637,44.24 -142.328,52.65 -37.086,7.67 -75.926,35.63 -121.8559,14.63 -25.8476,-11.81 -28.7265,-38.97 -27.7304,-72.22 0.914,-30.66 14.1836,-58.89 34.7461,-80.41 24.9102,-26.09 69.5782,-20.5 114.8402,-24.47 17.07,-29.21 98.554,-91.69 120.195,-101.97 19.117,-9.09 39.367,-21.81 60.527,-25.49 13.133,-2.29 59.301,-25.87 69.344,-38.21 14.797,-18.19 29.59,-36.38 44.391,-54.57 15.613,-19.2 47.187,-82.77 62.894,-101.9 51.485,-62.67 151.887,-119.409 168.469,-148.491 26.476,-46.438 96.176,-103.797 152.266,-115.328 64.964,-13.371 90.886,70.961 84.992,85.14"
         style="fill:#6757b1;fill-opacity:1;fill-rule:nonzero;stroke:none"
         id="path262" />
      <path
         d="m 313.66,2027.14 c -6.308,53.96 -17.871,136.86 -30.859,189.65 -4.817,19.58 14.726,30.21 18.844,50.19 2.89,14.03 0,23.38 -12.278,28.5 5.664,5.61 19.817,32.91 12.278,38.14 -15.719,10.9 -48.45,10.83 -68.02,4.68 -31.16,-9.8 -20.582,-30.48 -18.707,-57.29 1.715,-24.46 20.168,-36.34 22.215,-60.79 -9.235,-60.27 -20.723,-137.96 -8.379,-196.41 3.164,-14.99 0,-21.04 11.644,-45.27 11.872,-24.68 10.586,-43.11 22.469,-64.63 27.988,-50.69 94.746,-120.14 119.063,-109.89 20.914,8.82 28.418,72.17 9.523,114.57 -15.344,34.43 -62.844,93.96 -77.793,108.55"
         style="fill:#fabeaf;fill-opacity:1;fill-rule:nonzero;stroke:none"
         id="path264" />
      <path
         d="m 362.016,1964.19 c 0,0 13.07,26.89 -14.989,30.39 -28.058,3.51 -74.824,-58.76 -94.695,-90.75 -19.879,-32 -1.383,-94.44 5.563,-115.33 16.648,-50.07 57.566,-9.03 57.566,-9.03 l 46.555,184.72"
         style="fill:#c0addd;fill-opacity:1;fill-rule:nonzero;stroke:none"
         id="path266" />
      <path
         d="m 614.758,1454.38 c -2.485,0.24 -45.445,-30.76 -70.985,-34.25 -28.746,-3.91 -59.617,-8.36 -85.769,7.43 -21.602,13.03 -37.816,36.76 -52.649,56.52 -15.855,21.11 -42.832,65.61 -42.117,65.49 3.867,-0.68 3.102,2.19 1.653,5.99 -13.188,34.54 -59.258,22.31 -70.352,6.16 -20.687,-30.11 -50.508,-52.33 -15.316,-171.39 10.785,-36.5 26.57,-64.49 54.554,-90.27 31.278,15.35 68.11,69.34 77.832,79.64 -2.648,-57.5 10.528,-132.86 32.672,-186.04 0.949,-2.3 56.465,-11.94 79.282,-11.93 15.625,0 61.957,-2.89 89.886,44.67 9.906,16.88 43.891,61.7 57.453,75.84 23.071,24.07 -5.832,88.09 -40.422,106.64 11.442,33.26 12.356,42.74 -15.722,45.5"
         style="fill:#dbc9e8;fill-opacity:1;fill-rule:nonzero;stroke:none"
         id="path268" />
      <path
         d="m 405.91,1926.67 c -7.441,29.33 -10.406,48.46 -37.84,51.54 -47.586,5.36 -81.765,-56.04 -97.031,-93.62 -21.297,-52.41 2.934,-105.29 28.055,-153.14 10.992,-20.93 70.445,-99.51 92.359,-53.86 26.09,54.35 67.235,207.2 67.992,209.1 10.266,25.87 -27.656,36.56 -53.535,39.98"
         style="fill:#dbc9e8;fill-opacity:1;fill-rule:nonzero;stroke:none"
         id="path270" />
      <path
         d="m 672.352,1720.45 c -11.711,33.01 -46.672,51.11 -78.727,62.55 -47.934,18.88 -93.109,44.31 -133.547,76.34 -9.035,7.16 -17.832,14.63 -26.363,22.38 -7.781,7.07 -76.93,-75.45 -77.336,-112.77 -0.535,-49.61 6.773,-93.26 11.691,-142.53 4.407,-44.12 -9.824,-87.89 11.395,-127.99 18.625,-35.18 52.933,-55.87 90.469,-65.98 19.746,-5.32 40.218,-7.98 60.562,-9.66 16.289,-1.35 40.473,-6.74 55.43,2.69 13.758,8.67 16.918,27.81 21.426,42.05 9.726,30.74 19.472,61.48 29.187,92.23 9.715,30.74 19.41,61.5 29.07,92.26 6.965,22.21 14.903,45.41 6.743,68.43"
         style="fill:#fabeaf;fill-opacity:1;fill-rule:nonzero;stroke:none"
         id="path272" />
      <path
         d="m 564.723,1812.58 c -1.766,18.64 -18.739,19.69 -34.063,28.84 -23.148,13.82 -43.66,30.68 -63.211,49.17 -3.539,3.35 -8.344,-0.13 -8.004,-3.9 0.817,-27.7 -7.492,-52.14 -12.937,-84.54 -3.164,-18.82 -4.899,-19.28 8.64,-35.54 19.473,-23.38 59.477,-53.78 113.879,-20.35 0.223,27.69 -3.113,53.79 -4.304,66.32"
         style="fill:#f9aa9a;fill-opacity:1;fill-rule:nonzero;stroke:none"
         id="path274" />
      <path
         d="m 672.352,1720.45 c -0.317,17.98 -34.965,55.14 -61.11,73.05 -19.871,13.61 -35.515,23.3 -46.519,19.08 5.937,-38.95 -23.774,-65.18 -38.36,-82.73 -13.117,-15.78 -58.918,-52.26 -86.976,-139.75 -18.032,-56.21 25.394,-79.28 31.011,-89.09 28.582,-49.94 92.118,-82.34 144.36,-46.63 54.203,37.03 74.515,117.04 88.906,176.82 7.789,32.35 -30.687,53.45 -31.312,89.25"
         style="fill:#dbc9e8;fill-opacity:1;fill-rule:nonzero;stroke:none"
         id="path276" />
      <path
         d="m 370.734,1522.22 c 0,0 5.356,-56.4 40.875,-98.96 35.524,-42.56 89.293,-57.59 121.079,-52.36 31.792,5.23 77.054,23.02 84.941,52.36 7.887,29.33 -2.871,31.12 -2.871,31.12 l -102.871,-15.12 -141.153,82.96"
         style="fill:#c0addd;fill-opacity:1;fill-rule:nonzero;stroke:none"
         id="path278" />
      <path
         d="m 523.563,1695.3 c 0,0 -21.165,-48.43 -21.165,-86.83 0,-52.13 -30.277,-99 -30.277,-99 0,0 -0.742,-1.29 11.692,6.6 12.429,7.89 32.406,33.19 31.703,63.57 -0.707,30.37 8.047,115.66 8.047,115.66"
         style="fill:#c0addd;fill-opacity:1;fill-rule:nonzero;stroke:none"
         id="path280" />
      <path
         d="m 347.805,1561.72 c 0,0 -37.02,-41.4 -40.821,-87.71 -5.339,-65.13 31.817,-106.74 31.817,-106.74 0,0 -19.059,55.01 -11.258,97.22 10.566,57.18 33.555,85.15 33.555,85.15 l -13.293,12.08"
         style="fill:#c0addd;fill-opacity:1;fill-rule:nonzero;stroke:none"
         id="path282" />
      <path
         d="m 639.301,1499.19 c -35.074,-25.18 -52.492,-39.05 -70.266,-34.81 -17.781,4.25 -50.414,20.5 -60.703,34.81 -20.426,28.41 -66.445,197.38 -69.887,222.78 -3.715,27.41 -3.062,54.48 8.063,80.18 9.691,22.39 24.09,42.49 36.933,63.37 -4.996,4.08 -11.765,7.5 -15.73,10.24 -12.383,8.56 -18.086,23.25 -32.68,27.36 -21.246,5.99 -63.008,-26.32 -83.328,-91.42 -9.461,-30.32 -15.988,-90.01 -8.355,-121.08 14.273,-58.07 10.136,-54.52 0,-66.77 -5.953,-7.19 0,-22.08 8.355,-33.75 -23.379,-16.39 -11.012,-40.48 5.844,-60.82 19.277,-23.25 28.926,-56.01 51.41,-75.4 24.27,-20.94 51.731,-40.95 83.352,-48.7 14.644,-3.59 89.851,-0.92 124.257,36.37 13.372,14.49 34.75,47.86 22.735,57.64"
         style="fill:#e8d9ef;fill-opacity:1;fill-rule:nonzero;stroke:none"
         id="path284" />
      <path
         d="m 594.441,1949.05 c -27.035,38.94 -117.433,68.76 -144.503,-40.21 -10.586,-42.62 18.878,-78.6 50.214,-99.15 30.914,-20.27 89.817,-44.65 108.895,0.78 20.539,48.92 -0.391,118.1 -14.606,138.58"
         style="fill:#fabeaf;fill-opacity:1;fill-rule:nonzero;stroke:none"
         id="path286" />
      <path
         d="m 932.223,1512.73 c -3.114,8.28 -13.465,12.95 -20.477,17.94 -27.453,19.53 -51.984,21.53 -79.547,40.9 -11.66,8.2 -22.504,29.34 -50.019,41.21 -8.571,3.69 -15.606,8.96 -24.567,9.42 0.836,16.01 -4.328,31.24 -15.957,43.14 -6.25,6.4 -28.441,27.15 -36.953,29.96 -28.894,54.37 -42.918,57.21 -66.57,49.1 -47.668,-16.35 -52.61,-83.62 -52.613,-120.45 0,-54.58 3.648,-93.73 10.882,-108.08 9.274,-18.38 21.239,-38.74 66.051,-21.08 0,-17.66 13.356,-43.24 48.555,-46.56 0,-25.49 46.769,-32.54 84.808,-51.56 56.149,-28.07 90.164,-36.9 105.598,-22.76 26.863,24.6 45.356,100.1 30.809,138.82"
         style="fill:#c0addd;fill-opacity:1;fill-rule:nonzero;stroke:none"
         id="path288" />
      <path
         d="m 910.32,1504.59 c -18.265,20.76 -36.054,1.88 -44.347,-17.4 -9.102,-17.42 -9.071,-41.04 -4.785,-59.49 6.003,-25.83 20.765,-57.7 41.281,-22.51 14.254,24.45 29.527,74.77 7.851,99.4"
         style="fill:#a999d4;fill-opacity:1;fill-rule:nonzero;stroke:none"
         id="path290" />
      <path
         d="m 218.102,1242.86 c -6.688,-4.09 -8.637,-12.03 -24.227,-32.33 -12.965,1.04 -19.629,14.35 -27.766,22.69 -7.605,7.79 -16.496,11.23 -33.027,-3.81 -19.75,-17.97 -84.1328,-60.06 -94.0234,-85.01 -6.2422,-15.74 -12.7383,-45.88 7.9805,-52.47 22.5742,-7.2 70.5159,2.47 87.2889,14.4 30.902,21.96 36.809,48.85 54.563,58.34 7.324,-8.33 29.902,3 41.23,12.13 11.395,9.19 7.195,30.37 -0.586,47.93 -4.137,9.33 -5.383,14.27 -11.433,18.13"
         style="fill:#2f212f;fill-opacity:1;fill-rule:nonzero;stroke:none"
         id="path292" />
      <path
         d="m 1120.1,710.148 c -20.96,24.942 -50.31,66.133 -87.93,78.024 1.15,-10.172 2.41,-18.242 -2.6,-22.184 -21.82,3.512 -41.882,-14.539 -37.234,-35.316 -9.324,-1.43 -29.246,19.359 -29.176,19.16 16.492,-43.934 43.77,-78.891 84.55,-127.672 19.27,-23.058 70.53,-63.262 99.75,-28.93 27.76,32.61 2.79,81.071 -27.36,116.918"
         style="fill:#2f212f;fill-opacity:1;fill-rule:nonzero;stroke:none"
         id="path294" />
      <path
         d="m 368.07,1626.42 c 0,0 11.692,-40.16 35.071,-63.39 23.386,-23.22 52.007,-46.3 52.007,-46.3 0,0 -21.039,38.44 -43.539,62.91 -22.496,24.47 -43.539,46.78 -43.539,46.78"
         style="fill:#dbc9e8;fill-opacity:1;fill-rule:nonzero;stroke:none"
         id="path296" />
      <path
         d="m 391.453,1536.86 c 0,0 17.422,-40.4 36.18,-61.4 18.765,-21 63.183,-33.12 63.183,-33.12 0,0 -20.687,19.14 -43.074,39.01 -22.387,19.88 -56.289,55.51 -56.289,55.51"
         style="fill:#dbc9e8;fill-opacity:1;fill-rule:nonzero;stroke:none"
         id="path298" />
      <path
         d="m 632.289,1690.67 c 0,0 -14.101,-42.58 -14.648,-94.97 -0.555,-52.39 29.898,-74.6 25.195,-73.43 -4.703,1.17 -10.547,39.73 -10.547,80.08 0,40.34 0,88.32 0,88.32"
         style="fill:#a999d4;fill-opacity:1;fill-rule:nonzero;stroke:none"
         id="path300" />
      <path
         d="m 702.512,1626.42 c 0,0 -29.309,-39.29 -35.157,-64.7 -5.843,-25.42 1.36,-39.5 1.36,-39.5 0,0 11.527,32.95 21.453,57.42 9.922,24.47 12.344,46.78 12.344,46.78"
         style="fill:#a999d4;fill-opacity:1;fill-rule:nonzero;stroke:none"
         id="path302" />
      <path
         d="m 836.953,1527.56 c 0,0 -29.305,-39.29 -35.148,-64.71 -5.844,-25.41 1.351,-39.48 1.351,-39.48 0,0 11.535,32.94 21.457,57.41 9.926,24.47 12.34,46.78 12.34,46.78"
         style="fill:#a999d4;fill-opacity:1;fill-rule:nonzero;stroke:none"
         id="path304" />
      <path
         d="m 723.473,1590.1 c 0,0 -30.395,-64.42 -28.055,-88.92 2.34,-24.5 15.59,-36.8 15.59,-36.8 0,0 -3.113,32.08 0,57.84 3.113,25.77 12.465,67.88 12.465,67.88"
         style="fill:#a999d4;fill-opacity:1;fill-rule:nonzero;stroke:none"
         id="path306" />
      <path
         d="m 1102.72,1431.08 c -15.19,47.26 -40.21,33.3 -45,20.54 -20.15,12.24 -27.8,11.79 -36.46,3.01 -6.1,-6.18 -8.49,-16.91 -16.03,-15.37 -14.335,2.93 -34.511,25.52 -44.433,34.75 -17.352,16.15 -30.164,32.11 -55.078,38.05 -12.508,2.99 -24.18,-1.41 -31.778,-10.05 -13.867,-11.11 -20.695,-50.39 -11.64,-78.75 18.019,-13.57 91.289,-34.83 138.249,-41.28 21.14,-2.91 57.42,-21.12 76.4,-7.74 17.77,12.52 32.06,37.31 25.77,56.84"
         style="fill:#fabeaf;fill-opacity:1;fill-rule:nonzero;stroke:none"
         id="path308" />
      <path
         d="m 381.93,1918.59 c 0,0 -26.801,-25.72 -43.129,-50.27 -16.324,-24.55 -37.156,-74.82 -37.156,-74.82 0,0 4.816,58.05 26.269,88.65 21.449,30.6 54.016,36.44 54.016,36.44"
         style="fill:#c0addd;fill-opacity:1;fill-rule:nonzero;stroke:none"
         id="path310" />
      <path
         d="m 461.164,1344.05 c 0,0 33.945,-52.39 88.5,-52.69 54.559,-0.3 93.668,49.06 93.668,49.06 0,0 -54.695,-26.18 -93.668,-25.01 -38.969,1.17 -88.5,28.64 -88.5,28.64"
         style="fill:#c0addd;fill-opacity:1;fill-rule:nonzero;stroke:none"
         id="path312" />
      <path
         d="m 1798.07,832.832 c -3.18,9.156 -18.76,18.578 -25.93,25.398 -12.03,11.43 -23.86,23.04 -35.51,34.84 -23.29,23.61 -45.82,47.969 -67.55,73.032 -43.57,50.278 -83.6,103.488 -120.46,158.868 1.83,4.28 3.62,8.56 5.47,12.83 1.09,2.49 -2.39,4.71 -3.74,2.2 -1.77,-3.3 -3.43,-6.64 -5.16,-9.96 -1.51,2.28 -3.1,4.51 -4.6,6.8 -4.69,7.18 -16.28,0.49 -11.56,-6.75 2.98,-4.59 6.11,-9.05 9.14,-13.6 -27.85,-55.78 -49.69,-114.39 -66.81,-174.369 -8.63,-30.25 -21.89,-65.32 -20.29,-97.301 0.52,-10.488 3.27,-20.148 9.43,-28.718 10.22,-14.231 25.86,-19.692 27.97,-38.372 1.79,-15.851 -5.54,-30.32 -4.67,-46.488 0.79,-14.941 5.73,-29.113 10.8,-43.062 6.44,-17.731 12.89,-34.59 15.34,-53.391 2.39,-18.367 2.19,-36.969 4.81,-55.32 7.18,-50.25 33.6,-96.539 70.52,-131 43.78,-40.84 101.34,-64.617 161.43,-63.309 3.49,0.078 5.98,2.789 6.18,6.18 4.45,75.121 10.47,150.14 18.27,224.992 3.98,38.18 8.41,76.309 13.27,114.398 2.66,20.75 5.45,41.489 8.37,62.231 1.49,10.621 8.83,29.66 5.28,39.871"
         style="fill:#f2a92b;fill-opacity:1;fill-rule:nonzero;stroke:none"
         id="path314" />
      <path
         d="m 1142.75,1619.7 c -2.96,14.14 -72.91,86.66 -91.62,105.03 -21.08,20.7 -59.54,47.25 -85.04,19.03 -24.317,-26.93 -7.231,-53.09 15.125,-82.88 34.295,-45.7 85.615,-83.16 110.805,-99.16 11.33,-7.2 29.22,3.09 41.74,15.6 8.36,8.36 11,32.82 8.99,42.38"
         style="fill:#2f212f;fill-opacity:1;fill-rule:nonzero;stroke:none"
         id="path316" />
      <path
         d="m 1314.46,1477.95 -0.18,0.2 c -0.55,1.6 -1.73,2.89 -3.16,3.64 -24.4,28.67 -57.83,52.44 -86.01,77.05 -24.2,21.14 -81.61,62.37 -105.76,75 7.92,-14.68 -10.13,-48.34 -44.88,-47.28 13.55,-27.69 46.6,-74.33 67.05,-96.96 23.41,-25.9 43.86,-53.51 69.87,-76.8 12.96,-11.6 30.16,-34.62 49.18,-22.29 10.92,7.08 19.3,21.8 26.36,32.41 10.71,16.13 19.57,33.2 27.21,50.96 l 0.33,1.57 -0.01,2.5"
         style="fill:#e8d9ef;fill-opacity:1;fill-rule:nonzero;stroke:none"
         id="path318" />
      <path
         d="m 1789.54,618.73 c -45.19,-5.41 -99.9,-7.96 -142.54,12.411 9.51,-119.461 19.89,-232.762 14.99,-344.102 0,0 74.27,-40.547 96.8,-1.199 11.08,19.351 11.43,42.762 11.25,64.43 -0.27,32.871 -0.41,65.628 1.21,98.48 1.79,36.121 5.17,72.18 10.22,108 2.51,17.789 10.69,41.789 9.88,62.191 l -1.81,-0.211"
         style="fill:#c0addd;fill-opacity:1;fill-rule:nonzero;stroke:none"
         id="path320" />
      <path
         d="m 1717.21,1021.02 c -1.7,10.11 -3.25,20.26 -3.97,30.57 -2.18,31 2.86,61.96 0.99,92.71 -1.23,20.26 -11.37,33.99 -24.35,48.77 -17.96,20.48 -37.24,39.69 -56.97,58.44 l -1.91,0.93 c -64.11,72.29 -134.05,138.88 -209.45,199.2 -11.82,9.45 -29.04,8.14 -39.62,18.98 -42.4,43.43 -79.27,68.39 -117.08,32.49 -29.29,-27.8 -50.12,-71 -44.23,-114.19 2.99,-21.94 29.72,-29.16 44.23,-44.87 22.24,-24.08 39.63,-65.06 62.04,-88.98 43.44,-46.39 79.61,-84.57 123,-131.01 34.31,-36.72 149.92,-110.4 168.18,-157.72 60.24,5.64 39.17,46.84 99.14,54.68"
         style="fill:#453047;fill-opacity:1;fill-rule:nonzero;stroke:none"
         id="path322" />
      <path
         d="m 1766.07,1062.81 c -59.79,-8.13 -119.88,-14.04 -179.99,-19.52 0.84,-2.37 1.85,-4.67 2.6,-7.09 18.74,-60.161 12.53,-125.149 12.43,-187.188 -0.11,-69.633 2.71,-139.25 8.54,-208.621 0.88,-10.61 2.42,-36.289 8.63,-57.172 5.44,-46.539 68.88,-65.321 111.06,-57.949 67.21,11.761 50.13,87.378 44.6,135.199 -9.09,78.73 22.51,153.992 31.93,231.101 3.83,31.442 4.17,64.012 -3.5,94.942 -7.02,28.288 -22.01,51.808 -36.3,76.298"
         style="fill:#453047;fill-opacity:1;fill-rule:nonzero;stroke:none"
         id="path324" />
      <path
         d="m 1857.74,951.922 c -21.8,39.109 -36.03,78.998 -48.21,122.018 -20.8,73.49 -44.96,160.42 -117.55,199.38 l -0.72,0.22 c -26.4,31.93 -80.14,82.02 -122.45,86.35 -50.16,5.14 -85.05,-42.18 -98.85,-86.78 13.8,-43.48 81.09,-29.67 102.32,-43.48 -47.81,-24.11 -89.39,-36.53 -88.52,-44.26 13.84,-122.56 40.71,-267.038 155.19,-350.03 18.42,-13.34 82.61,-41.879 107.36,-32.18 14.81,5.789 26.85,20.879 37.89,31.629 16.48,16.063 32.54,32.531 48.15,49.43 20.91,22.613 42.21,37.523 25.39,67.703"
         style="fill:#dbc9e8;fill-opacity:1;fill-rule:nonzero;stroke:none"
         id="path326" />
      <path
         d="m 1784.73,1446.59 c -7.63,16.67 -28.05,47.65 -47.84,55.3 -66.39,25.67 -92.73,-19.17 -128.02,-32.57 -35.24,-1.75 -112.09,5.3 -140.28,-17.7 -30.66,-24.99 -65.66,-47.62 -83.49,-109.09 -8.12,-27.99 -1.4,-64.51 28.63,-78.55 27.37,-12.79 38.74,-13.53 56.23,9.13 9.61,12.46 32.1,46.9 41.81,57.38 22.02,6.95 48.79,-5.77 76.86,14.88 36.35,-32.37 61.53,-27.66 81.87,-17.68 22.19,10.91 38.91,39.53 61.58,48.12 28.18,10.67 69.54,33.85 52.65,70.78"
         style="fill:#f2a92b;fill-opacity:1;fill-rule:nonzero;stroke:none"
         id="path328" />
      <path
         d="m 1638.95,1229.63 c 0,0 -40.61,-69.38 -42.35,-127.62 -1.74,-58.23 22.73,-116.069 73.9,-155.76 51.16,-39.691 122.72,-25.418 122.72,-25.418 v 35.227 l -154.27,273.571"
         style="fill:#c0addd;fill-opacity:1;fill-rule:nonzero;stroke:none"
         id="path330" />
      <path
         d="m 2005.92,1234.28 c -15.06,46.01 -50.3,88.75 -77.77,128.2 -25.61,36.77 -58.72,75.31 -106.37,79.99 -25.24,2.48 -49.97,-5.14 -69.44,-19.8 -1.55,0.67 -3.09,1.35 -4.63,2.01 -2.01,0.88 -4.05,0.83 -5.71,-0.73 -34.27,-32.16 -78.09,-79.86 -77.45,-130.17 0.13,-10.41 8.46,-28.02 5.96,-37.32 -31.56,4.42 -39.51,-4.02 -46.68,-50.55 -2.54,-16.5 -14.95,-33.61 -14.95,-66.04 0,-22.91 5.87,-46.08 14.72,-67.12 11.7,-27.82 124.55,-132.32 184.91,-126.25 96.21,9.691 16.68,66.19 40.84,75.74 46.78,18.49 83.56,56.28 117.11,92.43 32.13,34.62 55.3,71.23 39.46,119.61"
         style="fill:#e8d9ef;fill-opacity:1;fill-rule:nonzero;stroke:none"
         id="path332" />
      <path
         d="m 1681.71,1229.63 c 0,0 15.59,-35.04 64.26,-63.47 29.53,-17.24 95.54,-25.06 95.54,-25.06 l 3.47,25.06 c 0,0 -28.89,6.71 -81.64,19.21 -52.74,12.5 -81.63,44.26 -81.63,44.26"
         style="fill:#dbc9e8;fill-opacity:1;fill-rule:nonzero;stroke:none"
         id="path334" />
      <path
         d="m 1663.91,1185.37 c 0,0 15.38,-56.38 48.72,-83.36 33.34,-26.97 63.87,-32.19 63.87,-32.19 0,0 -34.2,20.85 -59.29,48.64 -25.08,27.8 -53.3,66.91 -53.3,66.91"
         style="fill:#dbc9e8;fill-opacity:1;fill-rule:nonzero;stroke:none"
         id="path336" />
      <path
         d="m 1777.59,302.75 c 0.21,3.211 -54.14,-33.82 -57.39,-34.09 -15.91,16.07 -50.46,34.289 -58.21,18.379 -14,-22.457 -36.03,-40.07 -54.91,-58.098 -23.72,-22.66 -47.32,-45.461 -70.95,-68.222 -1.6,-1.528 -2.15,-4.559 -0.84,-6.457 13.29,-19.242 35.92,-17.5 56.73,-13.621 34.92,6.519 72.25,15.769 101.2,37.339 5.3,3.95 9.98,8.399 14.84,12.899 3.85,4.32 8.06,8.269 12.65,11.832 7.54,2.039 14.97,1.93 22.27,-0.332 8,0.402 13.35,1.703 19.14,7.781 19.81,20.828 13.81,66.828 15.47,92.59"
         style="fill:#2f212f;fill-opacity:1;fill-rule:nonzero;stroke:none"
         id="path338" />
      <path
         d="m 2041.28,212.801 c -14.64,19.679 -35.32,33.879 -49.44,54.031 -16.57,23.668 -18.36,53.316 -27.32,80.438 -24.01,72.71 24.62,383.832 -1.03,536.218 -4.9,29.16 -7.52,58.66 -11.06,88.012 -1.72,14.34 -4.3,28.94 -4.66,43.4 -0.57,22.44 7.49,38.68 19.04,56.88 25.19,39.69 56.67,80.33 55.98,129.72 -0.84,59.09 -54.89,102.46 -86.2,149.05 -9.98,53.45 -30.65,64.57 -49.05,72.82 -12.49,5.59 -9.25,-18.46 -7.65,-19.37 34.59,-39.25 2.21,-101.26 -21.51,-136.01 -23.72,-34.76 -34.29,-69.99 -43.1,-110.84 -20.78,-96.38 -43.49,-192.72 -54.88,-290.67 -23.22,-199.621 -36.85,-417.851 -37.88,-467.171 -2.11,-100.2 8.62,-201.368 -9.79,-300.5902 50.61,-25.8477 123.96,-67.6172 184.07,-59.9375 43.81,5.5781 62.3,33.789 98.19,62.4177 27.48,21.93 67.24,83.442 46.29,111.602"
         style="fill:#fbc144;fill-opacity:1;fill-rule:nonzero;stroke:none"
         id="path340" />
      <path
         d="m 1824.32,1433.24 c -16.4,23.99 -39.84,41.27 -68.93,45.99 -6.66,1.08 -10.17,-6.79 -6.36,-10.62 -29.77,-11.77 -56.24,-44.29 -71.45,-69.27 -21.16,-34.74 -30.81,-75.21 -28.1,-115.7 0.34,-5 7.45,-9.6 11.25,-4.67 44.71,57.87 102.77,101.83 161.15,144.96 2.79,2.06 4.69,6.01 2.44,9.31"
         style="fill:#fbc144;fill-opacity:1;fill-rule:nonzero;stroke:none"
         id="path342" />
      <path
         d="m 1890.93,1464.38 c 0.38,0.47 -68.11,-16.7 -82.03,-18.49 -15.11,-1.96 -20.9,-9.75 -24.33,-23.77 -3.5,-14.32 -4.13,-28.52 -9.14,-42.59 -3.98,-11.18 -9.42,-22.32 -13,-33.48 -13.64,-42.58 -13.64,-42.58 -25.25,-103.04 51.48,33.85 111.47,38.73 139.95,53.71 10.53,5.52 19.63,31.91 19.49,69.41 -0.15,40.46 -3.4,75.81 -5.69,98.25"
         style="fill:#f9aa9a;fill-opacity:1;fill-rule:nonzero;stroke:none"
         id="path344" />
      <path
         d="m 1902.98,1468.86 c 3.14,54.04 -24.05,108.73 -85.99,104.62 -30.15,-2 -53.22,-22.72 -63.3,-48.51 -12.25,-20.12 -15.91,-47.87 -16.72,-69.11 -1.95,-50.65 31.28,-115.24 91.33,-104.02 50.99,9.53 72.05,71.92 74.68,117.02"
         style="fill:#fabeaf;fill-opacity:1;fill-rule:nonzero;stroke:none"
         id="path346" />
      <path
         d="m 1724.7,1053.76 c 0,0 -23.45,19.12 -35.18,25.85 -11.72,6.72 -19.02,0 -19.02,0 0,0 0.58,23.65 -21.46,22.35 -22.05,-1.3 -40.17,-39.15 -33.77,-69.04 6.14,-28.7 57.77,-41.088 87.28,-35.182 29.51,5.922 22.15,56.022 22.15,56.022"
         style="fill:#fabeaf;fill-opacity:1;fill-rule:nonzero;stroke:none"
         id="path348" />
      <path
         d="m 2034.61,1197.22 c -7.57,18.19 -27.07,74.8 -63.7,61.71 -35.21,-12.57 -48.2,-37.12 -54.45,-71.41 -8.42,-46.18 -12.91,-108.62 1.04,-152 -13.44,1.9 -15.39,-0.23 -20.88,-13.02 -24.96,16.89 -71.82,17.52 -101.58,23.44 -29.7,5.92 -63.21,32 -91.19,16.87 -22.15,-11.98 -37.65,-39.01 -32.29,-69.361 4.68,-26.527 56.97,-43.269 76.59,-53.019 67.7,-33.68 134.38,-48.989 209.41,-39.168 34.49,4.508 40.43,4.386 53.47,36.558 15.73,38.801 33.06,83.26 36.12,124.99 3.05,41.62 3.7,95.38 -12.54,134.41"
         style="fill:#f2a92b;fill-opacity:1;fill-rule:nonzero;stroke:none"
         id="path350" />
      <path
         d="m 1656.08,1470.62 c 0,0 -23.99,-24.75 -31.1,-59.92 -7.1,-35.17 0,-60.15 0,-60.15 0,0 2.48,26.06 13.97,60.04 11.49,33.98 17.13,60.03 17.13,60.03"
         style="fill:#e7941b;fill-opacity:1;fill-rule:nonzero;stroke:none"
         id="path352" />
      <path
         d="m 1538.41,1443.4 c 0,0 -10.96,-12.21 -13.56,-35.47 -2.61,-23.26 9,-43.33 9,-43.33 0,0 -1.03,23.4 0.1,36.74 1.36,16.03 4.46,42.06 4.46,42.06"
         style="fill:#e7941b;fill-opacity:1;fill-rule:nonzero;stroke:none"
         id="path354" />
      <path
         d="m 1485,1432.84 c 0,-3.9 -6.54,-28.84 10.42,-50.47 16.89,-21.53 42.99,-22.48 42.99,-22.48 0,0 -21.49,9.94 -33.87,29.72 -12.37,19.79 -19.54,43.23 -19.54,43.23"
         style="fill:#e7941b;fill-opacity:1;fill-rule:nonzero;stroke:none"
         id="path356" />
      <path
         d="m 1392.51,1317.71 c 2.6,8.63 16.94,15.13 37.78,0 20.84,-15.13 34.78,-40.29 20.64,-52.01 -14.13,-11.73 -31.04,2.88 -42.35,11.16 -14.53,10.64 -19.38,29.88 -16.07,40.85"
         style="fill:#e7941b;fill-opacity:1;fill-rule:nonzero;stroke:none"
         id="path358" />
      <path
         d="m 1450.47,1296.47 c 0,0 -7.16,22.61 -42.29,30.26 -20.19,-23.61 -51.92,-63.69 -51.71,-83.72 0.22,-21.36 26.61,-34.66 47.45,-35.96 20.84,-1.31 34.02,-5.99 39.39,11.97 5.65,18.86 -6.51,26.71 -6.51,26.71 0,0 18.88,16.66 13.67,50.74"
         style="fill:#fabeaf;fill-opacity:1;fill-rule:nonzero;stroke:none"
         id="path360" />
      <path
         d="m 1924.01,1018.59 c 0,0 6.51,-23.449 23.45,-37.781 16.94,-14.329 33.87,-14.469 33.87,-14.469 0,0 -18.24,12.648 -28.66,23.332 -10.42,10.678 -28.66,28.918 -28.66,28.918"
         style="fill:#e7941b;fill-opacity:1;fill-rule:nonzero;stroke:none"
         id="path362" />
      <path
         d="m 1903.22,1006.86 c 0,0 -10.47,-29.962 2.55,-49.501 13.03,-19.539 27.36,-30.398 27.36,-30.398 0,0 -11.75,22.289 -16.95,39.379 -5.2,17.082 -12.96,40.52 -12.96,40.52"
         style="fill:#e7941b;fill-opacity:1;fill-rule:nonzero;stroke:none"
         id="path364" />
      <path
         d="m 1809.95,1018.59 c 0,0 -20.44,-7.03 -28.75,-28.918 -8.3,-21.891 -3.09,-33.613 -3.09,-33.613 0,0 15.79,24.601 20.92,36.402 5.13,11.789 10.92,26.129 10.92,26.129"
         style="fill:#e7941b;fill-opacity:1;fill-rule:nonzero;stroke:none"
         id="path366" />
      <path
         d="m 1540.59,1136.84 c 0,0 -1.31,-83.51 26.48,-129.98 27.79,-46.462 41.81,-60.61 41.81,-60.61 0,0 -16.07,42.691 -34.15,95.3 -18.08,52.6 -34.14,95.29 -34.14,95.29"
         style="fill:#c0addd;fill-opacity:1;fill-rule:nonzero;stroke:none"
         id="path368" />
      <path
         d="m 1511.09,1291.36 c 0,0 43.79,-15.89 74.2,-14.5 30.42,1.4 39.69,14.5 39.69,14.5 0,0 -36.88,-2.53 -56.95,0 -20.06,2.53 -56.94,0 -56.94,0"
         style="fill:#c0addd;fill-opacity:1;fill-rule:nonzero;stroke:none"
         id="path370" />
      <path
         d="m 1799.03,569.59 c 0,0 -19.9,-227.531 0,-323.07 19.9,-95.532 60.65,-112.899 97.59,-123.321 36.94,-10.418 56.05,14.961 56.05,14.961 0,0 -56.53,-2.801 -81.24,16.309 -24.71,19.101 -44.4,42.531 -54.53,114.191 -10.14,71.66 -6.5,290.512 -17.87,300.93"
         style="fill:#f9b338;fill-opacity:1;fill-rule:nonzero;stroke:none"
         id="path372" />
      <path
         d="m 1896.62,801.191 c 0,0 -25.14,-268.082 -16.68,-367.082 8.46,-99.007 3.25,-170.218 25.83,-206.687 22.58,-36.481 46.9,-38.211 46.9,-38.211 0,0 -22.6,39.898 -36.49,113.738 -13.88,73.84 -15.91,284.039 -10.41,341.332 9.35,97.27 -9.15,156.91 -9.15,156.91"
         style="fill:#f9b338;fill-opacity:1;fill-rule:nonzero;stroke:none"
         id="path374" />
      <path
         d="m 1363.85,1451.62 c 0,0 -43.42,-23.75 -60.79,-38.63 -17.37,-14.88 -15.64,-48.39 -15.64,-48.39 0,0 13.9,30.27 38.22,48.39 24.31,18.12 38.21,38.63 38.21,38.63"
         style="fill:#382738;fill-opacity:1;fill-rule:nonzero;stroke:none"
         id="path376" />
      <path
         d="m 521.59,2918.63 c -9.055,-25.41 -23.145,-67.11 -42.277,-125.12 -8.329,-26.95 -19.387,-64.24 -33.168,-111.86 h -55.387 c -5.145,21.6 -14.403,58.48 -27.774,110.62 -8.429,-26.84 -19.796,-63.72 -34.093,-110.62 h -54.618 c -6.582,23.55 -17.843,62.03 -33.789,115.4 -9.359,29.32 -23.191,69.84 -41.496,121.58 h 105.219 c 2.156,-10.08 5.961,-26.39 11.414,-48.91 l 16.356,-61.71 c 2.98,8.54 7.406,23.4 13.269,44.58 -4.84,18 -11.012,40.02 -18.516,66.04 h 95.657 c 1.644,-9.88 4.367,-25.87 8.176,-47.98 2.773,-14.72 6.578,-35.6 11.417,-62.64 l 15.887,62.94 c 2.883,11.93 6.223,27.83 10.031,47.68 h 53.692"
         style="fill:#f1447f;fill-opacity:1;fill-rule:nonzero;stroke:none"
         id="path378" />
      <path
         d="m 691.609,2918.63 -6.636,-97.66 c -3.809,0.62 -12.035,1.69 -24.688,3.24 -8.637,0.82 -18.101,1.33 -28.383,1.54 l -2.316,-29.47 c 11.316,-0.31 29.777,-0.05 55.387,0.77 -1.133,-3.8 -2.93,-10.9 -5.399,-21.28 -1.441,-6.28 -2.726,-13.53 -3.859,-21.76 -2.985,0.72 -10.438,1.65 -22.367,2.78 -5.559,0.31 -13.785,0.41 -24.688,0.31 l -1.543,-34.41 c 7.715,0.1 21.91,0.77 42.582,2.01 3.906,0.31 10.336,1.54 19.281,3.7 -0.82,-3.19 -2.722,-10.85 -5.707,-22.99 -1.441,-6.27 -3.187,-14.19 -5.242,-23.76 H 539.949 l -4.472,120.96 c -0.825,27.67 -2.832,66.34 -6.024,116.02 h 162.156"
         style="fill:#f1447f;fill-opacity:1;fill-rule:nonzero;stroke:none"
         id="path380" />
      <path
         d="m 1002.85,2641.44 c -1.44,-21.6 -3.545,-60.99 -6.323,-118.18 -1.441,-35.18 -2.519,-74.78 -3.238,-118.8 h -55.851 l -1.543,72.67 -54.461,-78.37 -58.782,77.76 -1.543,-72.06 H 765.57 c -0.722,23.56 -2.109,63.36 -4.168,119.42 -1.437,32.3 -4.062,71.48 -7.871,117.56 h 88.407 c 3.085,-7.51 8.382,-19.65 15.89,-36.41 5.758,-11.93 13.629,-26.02 23.606,-42.27 4.421,6.99 12.546,21.44 24.375,43.35 4.218,8.12 9.617,19.9 16.199,35.33 h 80.842"
         style="fill:#6757b1;fill-opacity:1;fill-rule:nonzero;stroke:none"
         id="path382" />
      <path
         d="m 1148.19,2500.89 c 0,28.59 -9.68,42.89 -29.01,42.89 -18.82,0 -28.24,-14.4 -28.24,-43.2 0,-11.52 2.48,-22.27 7.41,-32.24 5.55,-11.21 12.39,-16.82 20.52,-16.82 7.92,0 14.91,5.71 20.98,17.12 5.56,10.4 8.34,21.14 8.34,32.25 z m 74.2,27.15 c 0,-36.31 -9.36,-67.01 -28.08,-92.1 -19.64,-26.23 -44.79,-39.34 -75.44,-39.34 -31.58,0 -57.13,13.21 -76.68,39.65 -18.41,24.89 -27.61,55.48 -27.61,91.79 0,38.78 10.03,69.22 30.08,91.34 18.93,20.77 43.66,31.16 74.21,31.16 30.03,0 54.51,-10.43 73.44,-31.31 20.06,-22.22 30.08,-52.62 30.08,-91.19"
         style="fill:#6757b1;fill-opacity:1;fill-rule:nonzero;stroke:none"
         id="path384" />
      <path
         d="m 1432.83,2641.44 c -8.54,-25.3 -22.21,-66.6 -41.04,-123.89 -8.63,-26.95 -19.8,-64.64 -33.47,-113.09 h -53.69 c -6.89,23.46 -18.42,61.77 -34.56,114.95 -9.16,29.41 -22.73,70.09 -40.73,122.03 h 109.08 c 1.02,-9.77 3.44,-25.66 7.25,-47.67 2.56,-11.73 6.58,-27.88 12.03,-48.45 2.88,9.98 7.1,26.23 12.65,48.75 2.57,12.14 5.5,27.93 8.79,47.37 h 53.69"
         style="fill:#6757b1;fill-opacity:1;fill-rule:nonzero;stroke:none"
         id="path386" />
      <path
         d="m 1547.78,2641.44 -6.02,-126.05 c -1.14,-27.15 -2.47,-64.13 -4.01,-110.93 h -86.56 l -10.49,236.98 h 107.08"
         style="fill:#6757b1;fill-opacity:1;fill-rule:nonzero;stroke:none"
         id="path388" />
      <path
         d="m 1722.58,2641.44 -6.64,-97.66 c -3.81,0.62 -12.04,1.7 -24.69,3.24 -8.64,0.82 -18.1,1.34 -28.38,1.54 l -2.32,-29.47 c 11.32,-0.3 29.78,-0.05 55.39,0.78 -1.13,-3.81 -2.93,-10.91 -5.4,-21.29 -1.44,-6.28 -2.73,-13.53 -3.86,-21.76 -2.98,0.72 -10.44,1.65 -22.37,2.78 -5.55,0.31 -13.78,0.41 -24.68,0.31 l -1.55,-34.41 c 7.72,0.1 21.91,0.78 42.59,2.01 3.9,0.31 10.33,1.54 19.28,3.7 -0.82,-3.19 -2.73,-10.85 -5.71,-22.98 -1.44,-6.28 -3.19,-14.2 -5.24,-23.77 h -138.08 l -4.48,120.96 c -0.82,27.67 -2.83,66.34 -6.02,116.02 h 162.16"
         style="fill:#6757b1;fill-opacity:1;fill-rule:nonzero;stroke:none"
         id="path390" />
      <path
         d="m 1882.72,2544.4 c -7.62,1.74 -13.38,2.62 -17.28,2.62 -4.84,0 -9.26,-1.64 -13.27,-4.94 -4.84,-4.01 -7.26,-9.2 -7.26,-15.58 0,-4.93 4.43,-14.45 13.28,-28.54 8.84,-14.1 13.26,-27.05 13.26,-38.88 0,-17.18 -6.53,-31.27 -19.59,-42.27 -12.45,-10.6 -27.82,-15.9 -46.13,-15.9 -16.87,0 -29.32,1.19 -37.34,3.55 -0.92,4.74 -2.52,12.45 -4.78,23.15 -1.44,5.76 -3.45,13.42 -6.01,22.98 11.31,-2.77 18.92,-4.16 22.83,-4.16 15.32,0 22.99,5.81 22.99,17.43 0,8.44 -3.09,16 -9.26,22.68 -10.09,8.85 -20.16,17.75 -30.24,26.69 -19.54,17.29 -29.31,37.8 -29.31,61.56 0,24.79 9.25,43.56 27.77,56.32 16.14,11.1 37.64,16.66 64.49,16.66 15.22,0 32.29,-2.22 51.22,-6.64 l 4.63,-96.73"
         style="fill:#6757b1;fill-opacity:1;fill-rule:nonzero;stroke:none"
         id="path392" />
      <path
         d="m 800.262,2702.68 c 1.234,1.12 2.136,1.59 2.695,1.4 l 0.934,-1.49 c 0.058,-0.8 -0.094,-1.74 -0.469,-2.79 -0.371,-1.06 -0.809,-1.89 -1.301,-2.51 -1.117,-1.11 -2.484,-3.54 -4.098,-7.26 -1.609,-3.72 -3.441,-7.99 -5.488,-12.83 -2.043,-4.84 -4.246,-9.93 -6.601,-15.26 -2.356,-5.33 -4.836,-10.21 -7.446,-14.61 -2.601,-4.4 -5.273,-8.06 -7.996,-10.97 -2.73,-2.92 -5.461,-4.38 -8.191,-4.38 -2.11,0 -4.278,0.72 -6.508,2.15 -2.234,1.42 -4.281,3.16 -6.141,5.2 -1.863,2.05 -3.379,4.19 -4.558,6.42 -1.18,2.23 -1.766,4.22 -1.766,5.96 -0.129,2.97 0.184,6.63 0.926,10.97 0.75,4.34 1.648,8.93 2.699,13.77 1.051,4.84 2.199,9.68 3.445,14.51 1.235,4.84 2.29,9.18 3.161,13.02 0.867,3.85 1.457,6.98 1.765,9.4 0.313,2.42 0.156,3.63 -0.465,3.63 -0.988,0 -2.507,-1.96 -4.554,-5.86 -2.051,-3.91 -4.313,-8.78 -6.793,-14.6 -2.485,-5.84 -5.117,-12.19 -7.91,-19.08 -2.786,-6.88 -5.422,-13.24 -7.903,-19.07 -2.48,-5.83 -4.746,-10.7 -6.793,-14.6 -2.047,-3.91 -3.566,-5.86 -4.554,-5.86 -5.586,0 -9.895,1.67 -12.938,5.02 -3.035,3.35 -4.738,7.75 -5.117,13.21 -0.121,1.24 0.191,3.56 0.933,6.98 0.743,3.4 1.676,7.28 2.793,11.63 1.114,4.33 2.29,8.86 3.536,13.58 1.234,4.71 2.324,8.99 3.254,12.83 0.929,3.85 1.609,7.04 2.05,9.59 0.426,2.54 0.399,3.81 -0.097,3.81 -1.864,0 -3.973,-1.8 -6.325,-5.39 -2.359,-3.6 -4.808,-8.13 -7.347,-13.59 -2.547,-5.46 -5.117,-11.32 -7.727,-17.58 -2.601,-6.26 -5.082,-12.12 -7.441,-17.58 -2.36,-5.46 -4.477,-9.99 -6.352,-13.58 -1.879,-3.6 -3.383,-5.4 -4.511,-5.4 -2.133,0 -4.297,0.56 -6.489,1.68 -2.195,1.11 -4.16,2.54 -5.898,4.28 -1.738,1.73 -3.196,3.65 -4.375,5.76 -1.18,2.11 -1.77,4.1 -1.77,5.96 -0.25,4.34 0.063,9.51 0.93,15.53 0.867,6.02 1.828,12.07 2.883,18.14 1.051,6.08 2.019,11.66 2.886,16.75 0.872,5.08 1.243,8.86 1.114,11.34 0,1.25 0.91,1.65 2.73,1.22 1.817,-0.44 3.852,-1.31 6.11,-2.61 2.254,-1.3 4.32,-2.76 6.203,-4.37 1.875,-1.61 2.816,-2.98 2.816,-4.09 0.125,-1.86 -0.09,-4.47 -0.656,-7.82 -0.563,-3.35 -1.188,-7.04 -1.883,-11.07 -0.687,-4.03 -1.437,-8.15 -2.254,-12.37 -0.816,-4.22 -1.441,-8.03 -1.879,-11.44 -0.441,-3.42 -0.687,-6.21 -0.754,-8.38 -0.062,-2.17 0.348,-3.25 1.227,-3.25 0.121,0 0.84,1.86 2.16,5.58 1.316,3.72 3.031,8.4 5.145,14.05 2.121,5.64 4.57,11.72 7.363,18.23 2.793,6.51 5.738,12.59 8.84,18.23 3.097,5.64 6.32,10.33 9.672,14.05 3.347,3.72 6.636,5.58 9.863,5.58 2.109,0 4.09,-0.68 5.949,-2.04 1.863,-1.37 3.473,-2.98 4.84,-4.84 1.363,-1.86 2.48,-3.72 3.352,-5.58 0.863,-1.86 1.304,-3.35 1.304,-4.47 0,-0.74 -0.379,-2.48 -1.121,-5.21 -0.746,-2.73 -1.644,-5.92 -2.699,-9.58 -1.055,-3.66 -2.137,-7.5 -3.25,-11.53 -1.121,-4.04 -2.051,-7.76 -2.793,-11.17 -0.742,-3.41 -1.184,-6.23 -1.305,-8.46 -0.121,-2.24 0.309,-3.35 1.305,-3.35 0.367,0 1.269,1.7 2.699,5.12 1.418,3.4 3.16,7.68 5.203,12.83 2.051,5.15 4.407,10.73 7.071,16.74 2.668,6.02 5.519,11.6 8.562,16.75 3.035,5.14 6.199,9.43 9.492,12.84 3.282,3.41 6.602,5.12 9.949,5.12 1.985,0 3.934,-0.53 5.86,-1.58 1.926,-1.06 3.629,-2.33 5.117,-3.82 1.488,-1.49 2.731,-3.01 3.723,-4.56 0.988,-1.55 1.488,-2.76 1.488,-3.62 0,-1.5 -0.559,-4.41 -1.676,-8.75 -1.113,-4.34 -2.48,-9.4 -4.09,-15.16 -1.613,-5.77 -3.257,-11.82 -4.933,-18.15 -1.676,-6.32 -3.102,-12.12 -4.278,-17.39 -1.179,-5.27 -1.859,-9.61 -2.046,-13.03 -0.184,-3.41 0.402,-5.11 1.769,-5.11 1.234,0 2.695,1.11 4.371,3.35 1.672,2.23 3.504,5.11 5.488,8.65 1.981,3.53 4.063,7.5 6.235,11.91 2.168,4.4 4.371,8.77 6.601,13.11 2.235,4.34 4.469,8.38 6.7,12.1 2.23,3.72 4.339,6.75 6.328,9.11"
         style="fill:#2f212f;fill-opacity:1;fill-rule:nonzero;stroke:none"
         id="path394" />
      <path
         d="m 835.238,2711.98 c -0.621,0.75 -1.675,1.12 -3.164,1.12 -1.484,0 -2.547,0 -3.16,0 -1.367,0 -2.918,-0.99 -4.652,-2.97 -1.739,-1.99 -3.473,-4.53 -5.211,-7.63 -1.738,-3.1 -3.379,-6.58 -4.934,-10.42 -1.551,-3.85 -2.851,-7.66 -3.906,-11.44 -1.055,-3.79 -1.766,-7.32 -2.137,-10.61 -0.371,-3.29 -0.187,-5.86 0.555,-7.72 0.5,-1.12 1.555,-0.99 3.164,0.37 1.613,1.37 3.473,3.38 5.582,6.05 2.109,2.66 4.313,5.77 6.605,9.3 2.297,3.54 4.403,6.98 6.325,10.33 1.925,3.35 3.535,6.38 4.84,9.11 1.304,2.73 2.015,4.59 2.136,5.58 0.25,1.61 0.188,3.17 -0.183,4.66 -0.371,1.49 -0.993,2.91 -1.86,4.27 z m 10.606,-0.74 c 0.371,0.87 0.676,1.86 0.929,2.98 0.247,1.12 0.586,2.2 1.024,3.25 0.433,1.06 0.988,1.93 1.672,2.61 0.683,0.68 1.582,1.03 2.703,1.03 1.488,0.24 3.094,0.05 4.832,-0.57 1.738,-0.61 3.351,-1.42 4.84,-2.41 1.488,-1 2.758,-2.14 3.812,-3.45 1.055,-1.3 1.582,-2.57 1.582,-3.81 0.121,0.74 -0.183,-0.46 -0.925,-3.63 -0.75,-3.16 -1.711,-7.35 -2.887,-12.56 -1.184,-5.2 -2.418,-11 -3.723,-17.39 -1.301,-6.4 -2.387,-12.41 -3.254,-18.05 -0.871,-5.64 -1.398,-10.42 -1.582,-14.33 -0.187,-3.9 0.278,-5.98 1.395,-6.23 0.992,-0.12 2.324,1.39 4,4.56 1.676,3.16 3.562,7.16 5.672,12 2.109,4.83 4.25,10.14 6.421,15.9 2.168,5.78 4.25,11.2 6.235,16.29 1.984,5.08 3.687,9.45 5.113,13.11 1.426,3.66 2.453,5.8 3.07,6.42 l 1.582,-0.37 1.028,-1.3 c -1.617,-4.72 -3.258,-9.89 -4.934,-15.54 -1.672,-5.64 -3.41,-11.32 -5.207,-17.02 -1.804,-5.71 -3.629,-11.29 -5.488,-16.75 -1.863,-5.46 -3.723,-10.35 -5.582,-14.69 -1.859,-4.34 -3.723,-7.94 -5.582,-10.79 -1.86,-2.86 -3.66,-4.53 -5.395,-5.03 -1.246,-0.37 -3.164,-0.18 -5.773,0.56 -2.602,0.74 -5.238,2.04 -7.902,3.9 -2.672,1.86 -4.997,4.28 -6.981,7.26 -1.984,2.98 -2.976,6.45 -2.976,10.42 0,3.1 0.277,6.48 0.839,10.14 0.555,3.66 1.207,7.26 1.953,10.79 0.743,3.54 1.454,6.89 2.137,10.05 0.68,3.16 1.211,5.73 1.582,7.72 l -0.648,1.4 -1.395,-0.47 c -2.488,-2.48 -5.09,-5.92 -7.82,-10.32 -2.727,-4.41 -5.488,-8.78 -8.273,-13.12 -2.793,-4.34 -5.583,-8.13 -8.375,-11.35 -2.79,-3.23 -5.489,-4.9 -8.09,-5.02 -2.489,-0.13 -4.746,0.27 -6.793,1.21 -2.047,0.92 -3.813,2.2 -5.305,3.81 -1.488,1.61 -2.637,3.41 -3.441,5.39 -0.805,1.99 -1.211,4.03 -1.211,6.14 -0.121,3.6 0.218,8.16 1.023,13.68 0.809,5.52 2.328,11.19 4.559,17.02 2.234,5.83 5.367,11.47 9.398,16.93 4.027,5.46 9.211,9.87 15.531,13.22 1.121,0.61 3.164,0.58 6.145,-0.1 2.973,-0.68 5.949,-1.71 8.93,-3.07 2.972,-1.36 5.546,-2.98 7.718,-4.84 2.168,-1.86 3.075,-3.59 2.703,-5.21 l 0.461,-0.65 0.653,0.28"
         style="fill:#2f212f;fill-opacity:1;fill-rule:nonzero;stroke:none"
         id="path396" />
      <path
         d="m 949.477,2705.66 c 1.488,1.98 2.695,3.94 3.625,5.86 0.929,1.93 1.398,4.12 1.398,6.61 -0.996,0.37 -1.953,0.37 -2.887,0 -0.933,-0.37 -1.519,-0.63 -1.765,-0.75 -3.102,-2.35 -6.172,-4.99 -9.211,-7.9 -3.043,-2.92 -5.985,-5.99 -8.836,-9.21 -2.86,-3.23 -5.555,-6.52 -8.098,-9.87 -2.543,-3.35 -4.867,-6.63 -6.976,-9.86 l 0.933,-0.74 c 0.988,-0.5 2.445,-0.25 4.367,0.74 1.926,1 4.036,2.39 6.328,4.19 2.297,1.8 4.657,3.81 7.071,6.04 2.418,2.24 4.652,4.41 6.699,6.52 2.047,2.11 3.75,3.93 5.117,5.49 1.363,1.55 2.106,2.51 2.235,2.88 z m -47.079,20.28 c 0,-1.24 0.157,-2.39 0.469,-3.44 0.309,-1.06 0.899,-1.59 1.77,-1.59 6.199,0 11.968,1.34 17.301,4.01 5.332,2.67 10.109,6.07 14.324,10.23 4.218,4.15 7.941,8.83 11.168,14.05 3.222,5.21 5.918,10.39 8.09,15.53 2.168,5.15 3.812,9.96 4.933,14.42 1.117,4.47 1.672,8.13 1.672,10.98 0,1.86 -0.125,4.1 -0.371,6.7 -0.254,2.6 -0.84,5.12 -1.766,7.53 -0.933,2.43 -2.238,4.47 -3.906,6.14 -1.676,1.68 -3.883,2.45 -6.605,2.33 -2.981,0 -6.239,-1.71 -9.774,-5.12 -3.535,-3.41 -7.039,-7.81 -10.512,-13.21 -3.472,-5.39 -6.82,-11.41 -10.043,-18.04 -3.226,-6.64 -6.078,-13.19 -8.558,-19.63 -2.481,-6.45 -4.465,-12.44 -5.953,-17.96 -1.489,-5.52 -2.239,-9.83 -2.239,-12.93 z m 64.567,-9.49 c 0,-1.99 -0.777,-4.38 -2.328,-7.17 -1.555,-2.8 -3.598,-5.75 -6.141,-8.86 -2.543,-3.11 -5.336,-6.22 -8.371,-9.32 -3.043,-3.11 -6.078,-5.94 -9.117,-8.49 -3.043,-2.54 -5.895,-4.69 -8.559,-6.43 -2.668,-1.74 -4.804,-2.79 -6.418,-3.16 -1.117,-0.25 -1.738,-0.82 -1.859,-1.68 l 0.371,-1.87 c 0.742,-1.61 2.012,-3.82 3.812,-6.62 1.797,-2.8 3.973,-5.78 6.516,-8.95 2.539,-3.17 5.332,-6.37 8.367,-9.6 3.039,-3.23 6.203,-6.15 9.492,-8.76 3.282,-2.61 6.668,-4.73 10.137,-6.34 3.473,-1.62 6.824,-2.43 10.051,-2.43 1.734,0 3.008,0.37 3.812,1.12 0.805,0.75 1.704,1.43 2.7,2.04 0.867,0.13 1.113,-0.79 0.742,-2.77 -0.371,-1.97 -1.274,-4.16 -2.695,-6.55 -1.43,-2.38 -3.321,-4.56 -5.676,-6.52 -2.36,-1.96 -5.09,-2.95 -8.184,-2.95 -3.105,0 -6.394,1.12 -9.863,3.36 -3.473,2.23 -6.914,5.11 -10.328,8.65 -3.414,3.53 -6.731,7.5 -9.953,11.9 -3.227,4.41 -6.203,8.81 -8.93,13.22 -2.73,4.39 -5.117,8.48 -7.164,12.27 -2.043,3.78 -3.566,6.91 -4.559,9.4 l -1.582,0.46 -1.207,-1.21 c -1.988,-3.1 -3.414,-6.69 -4.281,-10.79 -0.871,-4.09 -1.676,-8.43 -2.418,-13.02 -0.129,-1 -1.023,-1.61 -2.699,-1.86 -1.676,-0.25 -3.508,-0.25 -5.488,0 -1.985,0.25 -3.844,0.74 -5.582,1.49 -1.739,0.74 -2.665,1.54 -2.79,2.42 -3.847,5.45 -6.113,11.22 -6.789,17.3 -0.679,6.07 -1.027,12.28 -1.027,18.6 0,10.55 0.777,21.21 2.328,32.01 1.551,10.79 3.75,21.14 6.602,31.07 2.851,9.92 6.265,19.25 10.234,28 3.973,8.74 8.434,16.4 13.399,22.98 4.957,6.57 10.293,11.78 15.996,15.63 5.711,3.84 11.726,5.88 18.054,6.13 2.231,0 4.649,-0.55 7.254,-1.67 2.602,-1.12 5.082,-2.79 7.442,-5.02 2.355,-2.24 4.308,-5.06 5.859,-8.47 1.547,-3.41 2.324,-7.35 2.324,-11.81 0,-8.07 -1.113,-15.57 -3.344,-22.52 -2.238,-6.94 -5.152,-13.3 -8.746,-19.07 -3.597,-5.76 -7.601,-10.88 -12,-15.35 -4.406,-4.46 -8.781,-8.22 -13.117,-11.26 -4.344,-3.03 -8.406,-5.36 -12.187,-6.97 -3.785,-1.61 -6.856,-2.42 -9.207,-2.42 -2.36,0 -4.16,-0.5 -5.399,-1.49 -1.246,-0.99 -2.14,-2.27 -2.699,-3.82 -0.555,-1.56 -0.867,-3.33 -0.926,-5.32 -0.07,-1.98 -0.035,-3.91 0.09,-5.77 0,-0.63 0.031,-2.31 0.094,-5.04 0.058,-2.74 0.121,-5.72 0.187,-8.95 0.059,-3.24 0.184,-6.34 0.371,-9.32 0.184,-2.98 0.399,-4.98 0.649,-5.97 l 0.84,0.18 0.648,0.75 c 1.613,2.36 3.567,5.38 5.86,9.04 2.296,3.67 4.902,7.59 7.816,11.75 2.91,4.16 6.016,8.33 9.305,12.49 3.285,4.17 6.664,7.92 10.14,11.28 3.473,3.35 7.035,6.02 10.699,8 3.657,1.99 7.219,2.92 10.696,2.8 1.234,0 2.418,-0.31 3.535,-0.93 1.113,-0.63 2.047,-1.37 2.789,-2.23 0.746,-0.88 1.332,-1.84 1.77,-2.89 0.433,-1.06 0.652,-1.95 0.652,-2.7"
         style="fill:#2f212f;fill-opacity:1;fill-rule:nonzero;stroke:none"
         id="path398" />
      <path
         d="m 1013.85,2716.27 c 0.37,2.23 0,4.15 -1.12,5.77 -1.11,1.6 -2.91,2.29 -5.39,2.04 -4.1,-1.24 -7.414,-3.38 -9.953,-6.42 -2.547,-3.04 -4.313,-6.23 -5.305,-9.58 -0.25,-0.99 -0.184,-1.7 0.188,-2.14 l 1.488,-0.93 2.047,-0.19 1.672,0.09 c 3.963,0.75 7.503,2.3 10.603,4.66 3.1,2.35 5.03,4.59 5.77,6.7 z m 33.49,-15.45 c -1.49,-2.23 -3.29,-4.99 -5.39,-8.28 -2.12,-3.29 -4.47,-6.79 -7.07,-10.5 -2.61,-3.73 -5.4,-7.39 -8.38,-10.99 -2.98,-3.6 -6.11,-6.88 -9.39,-9.86 -3.29,-2.98 -6.67,-5.36 -10.14,-7.16 -3.48,-1.8 -6.95,-2.7 -10.423,-2.7 -3.352,0 -6.766,0.69 -10.234,2.05 -3.473,1.36 -6.602,3.25 -9.399,5.67 -2.785,2.42 -5.051,5.27 -6.789,8.56 -1.734,3.28 -2.602,6.79 -2.602,10.51 0,3.84 0.34,7.94 1.024,12.28 0.68,4.34 1.699,8.63 3.066,12.84 1.364,4.22 3.071,8.28 5.117,12.19 2.047,3.91 4.497,7.35 7.348,10.32 2.852,2.98 6.051,5.34 9.586,7.07 3.535,1.74 7.536,2.61 11.996,2.61 0.5,0 1.52,-0.28 3.07,-0.84 1.55,-0.55 3.2,-1.46 4.93,-2.69 1.74,-1.25 3.38,-2.89 4.94,-4.94 1.54,-2.04 2.63,-4.56 3.25,-7.53 0.37,-3.23 -0.56,-6.23 -2.79,-9.02 -2.23,-2.8 -5.02,-5.18 -8.37,-7.17 -3.35,-1.98 -6.8,-3.56 -10.33,-4.74 -3.536,-1.18 -6.419,-1.77 -8.649,-1.77 -1.117,0 -2.02,-1.09 -2.699,-3.26 -0.684,-2.17 -1.184,-4.68 -1.489,-7.53 -0.312,-2.86 -0.5,-5.62 -0.558,-8.28 -0.063,-2.67 -0.094,-4.56 -0.094,-5.68 0,-2.6 0.93,-4.96 2.789,-7.07 1.86,-2.11 4.84,-3.16 8.93,-3.16 2.61,0 5.4,0.93 8.38,2.79 2.97,1.86 5.95,4.19 8.93,6.98 2.97,2.79 5.83,5.83 8.56,9.12 2.72,3.28 5.17,6.35 7.34,9.21 2.17,2.85 3.94,5.3 5.31,7.35 1.36,2.04 2.16,3.19 2.41,3.44 l 1.96,0.74 2.42,1.12 2.32,0.55 1.86,-0.92 -0.74,-1.31"
         style="fill:#2f212f;fill-opacity:1;fill-rule:nonzero;stroke:none"
         id="path400" />
    </g>
  </g>
</svg>
